<?xml version="1.0" encoding="UTF-8"?>
<svg id="Capa_1" data-name="Capa 1" xmlns="http://www.w3.org/2000/svg" viewBox="0 0 260 59.42">
  <defs>
    <style>
      .cls-1 {
        fill: #fff;
      }
    </style>
  </defs>
  <path id="Trazado_2245" data-name="Trazado 2245" class="cls-1" d="M35.7,12.06c-.16,2.1-1.98,3.68-4.09,3.54-2.1,.14-3.92-1.44-4.09-3.54,.16-2.1,1.98-3.68,4.09-3.54,2.1-.14,3.93,1.44,4.09,3.54"/>
  <path id="Trazado_2246" data-name="Trazado 2246" class="cls-1" d="M55.71,15.64c.23-.54,.4-1.11,.52-1.68,.03-.31,.03-.62-.4-.31-3.82,2.95-8.44,4.67-13.26,4.94-4.41-.02-8.81-.53-13.1-1.52-1.8-.4-4.19-.59-4.81,.5-.46,1.54-.33,3.2,.37,4.65,.56,1.12,2.49,4.04,2.55,4.19s.03,.4-.43,.59c-3.55,1.84-6.8,4.19-9.65,6.98-3.03,3.01-5.7,6.35-7.98,9.96-2.99-4.18-4.6-9.19-4.59-14.33C4.91,15.97,15.96,4.91,29.6,4.91c7.01,0,13.68,2.97,18.36,8.18,1.47-.76,2.89-1.63,4.25-2.59C46.59,3.84,38.32,0,29.6,0,13.25,0,0,13.25,0,29.6H0c0,6.93,2.43,13.64,6.88,18.95-.52,1.04-1.04,2.12-1.52,3.25-.59,1.25-.82,2.81-.4,3.18s1.64-.15,3.63-2.53c3.1-3.92,6.5-7.6,10.16-11.01,3.99-3.45,7.46-6.52,11.6-7.39,2.81-.53,5.65,.74,7.12,3.2,1.11,1.84,.77,4.21-.82,5.65-2.34,2.18-5.04,3.95-7.98,5.23-2.73,1.24-3.17,1.49-3.17,2.01s.47,1.04,3.12,.54,10.09-2.36,13.98-5.82,3.22-7.87,.99-11.7c-2.23-3.83-10.01-7.83-10.01-7.83,0,0,8.92-.87,12.74-2.5,2.1-.79,4.08-1.84,5.91-3.14,1.37,3.13,2.08,6.5,2.08,9.92,0,13.64-11.05,24.7-24.69,24.7h0c-4.85,0-9.59-1.42-13.62-4.1l-2.57,4.18c4.81,3.16,10.44,4.83,16.19,4.83,16.35,0,29.61-13.25,29.61-29.61h0c0-4.88-1.2-9.67-3.5-13.97"/>
  <path id="Trazado_2247" data-name="Trazado 2247" class="cls-1" d="M93.13,8.66l3.31-4.62s-3.71-3.6-11.3-3.6-10.44,5.02-10.44,9.64,3.08,6.9,7.82,8.22,8.68,1.99,8.68,4.84-3.43,3.82-7.31,3.08c-2.42-.5-4.69-1.58-6.61-3.14l-3.88,4.45c3.51,2.87,7.9,4.46,12.44,4.5,7.48,0,11.75-3.71,11.75-9.81s-6.45-8.04-9.93-8.84-7.48-1.7-6.57-5.3c.91-3.59,9.48-2.05,12.04,.57"/>
  <path id="Trazado_2249" data-name="Trazado 2249" class="cls-1" d="M103.44,.99V31.51l22.89-.02v-5.65h-16.59v-6.97h14.57v-5.59h-14.57V6.52h16.59V.97h-22.89Z"/>
  <path id="Trazado_2250" data-name="Trazado 2250" class="cls-1" d="M156.75,.86l-8.3,13.39L140.15,.86h-6.89V31.49h6.16l-.07-20.59,9.1,13.45,8.9-13.66V31.49h6.29V.86h-6.89Z"/>
  <path id="Trazado_2251" data-name="Trazado 2251" class="cls-1" d="M183.78,.86h-12.31V31.49h6.23c0,.18,.07-9.35,.07-9.35h6.36c2.88,0,11.24-1.54,11.24-10.98S185.79,.86,183.78,.86m0,15.73c-2.34,0-6.02,.07-6.02,.07V6.68h6.09c1.2,0,5.15,1,5.15,4.68,.11,2.78-2.06,5.12-4.84,5.23-.13,0-.25,0-.38,0"/>
  <path id="Trazado_2252" data-name="Trazado 2252" class="cls-1" d="M226.95,31.49l-7.62-11.13c4.21-1.39,7-5.37,6.88-9.8,0-9.44-10.98-9.7-12.98-9.7h-12.31V31.49h6.23c0,.18,.07-9.89,.07-9.89,0,0,2.97-.06,5.69-.06l6.63,9.95h7.43Zm-19.74-24.81h6.09c1.2,0,6.43-.27,6.43,4.68,0,4.29-4.15,4.62-6.49,4.62h-6.02V6.68Z"/>
  <path id="Trazado_2254" data-name="Trazado 2254" class="cls-1" d="M240.91,.86l-12.95,30.63h6.31l2.81-6.9h13.32l2.93,6.9h6.63L247.02,.86h-6.12Zm2.86,7.35l4.52,10.77h-8.92l4.39-10.77Z"/>
  <path id="Trazado_2255" data-name="Trazado 2255" class="cls-1" d="M75.48,59.16h2.24v-12.66h-2.24v12.66Z"/>
  <path id="Trazado_2256" data-name="Trazado 2256" class="cls-1" d="M89.86,46.5v8.76l-6.68-8.76h-2.09v12.66h2.09v-9.02l6.92,9.02h1.91l.08-12.66h-2.24Z"/>
  <path id="Trazado_2257" data-name="Trazado 2257" class="cls-1" d="M95.27,46.5v12.66h2.2l.04-5.21h6.27v-1.99h-6.31v-3.42h7.17v-2.03h-9.37Z"/>
  <path id="Trazado_2258" data-name="Trazado 2258" class="cls-1" d="M134.44,46.5v12.66h9.44v-1.89h-7.24v-3.51h6.26v-1.97h-6.26v-3.36h7.19v-1.94h-9.38Z"/>
  <path id="Trazado_2259" data-name="Trazado 2259" class="cls-1" d="M156.92,46.5v2.12h4.06v10.55h2.22v-10.55h4.02v-2.12h-10.3Z"/>
  <path id="Trazado_2260" data-name="Trazado 2260" class="cls-1" d="M208.62,46.5v2.12h4.06v10.55h2.22v-10.55h4.02v-2.12h-10.3Z"/>
  <path id="Trazado_2261" data-name="Trazado 2261" class="cls-1" d="M114.48,54.34c1.84-.37,3.08-2.09,2.86-3.95-.12-2.24-2.01-3.98-4.26-3.89h-5.98v12.66h2.2v-4.4h2.76l3.11,4.4h2.62l-3.32-4.82Zm-5.16-1.51v-4.28h3.7c.54,0,2.11,.58,2.11,2.01,.11,1.13-.71,2.14-1.84,2.26-.05,0-.11,0-.16,0h-3.8Z"/>
  <path id="Trazado_2262" data-name="Trazado 2262" class="cls-1" d="M176.76,54.34c1.84-.37,3.08-2.09,2.86-3.95-.12-2.24-2.02-3.98-4.26-3.89h-5.98v12.66h2.2v-4.4h2.76l3.11,4.4h2.62l-3.32-4.82Zm-5.16-1.51v-4.28h3.7c.54,0,2.11,.58,2.11,2.02,.11,1.13-.72,2.14-1.85,2.25-.05,0-.1,0-.15,0h-3.8Z"/>
  <path id="Trazado_2263" data-name="Trazado 2263" class="cls-1" d="M242.17,54.34c1.84-.37,3.08-2.09,2.86-3.95-.12-2.24-2.01-3.98-4.26-3.89h-5.98v12.66h2.2v-4.4h2.76l3.11,4.4h2.62l-3.32-4.82Zm-5.16-1.51v-4.28h3.7c.54,0,2.11,.58,2.11,2.02,.11,1.13-.72,2.14-1.85,2.25-.05,0-.1,0-.15,0h-3.8Z"/>
  <path id="Trazado_2264" data-name="Trazado 2264" class="cls-1" d="M184.53,46.5v7.51c-.12,1.76,1.22,3.29,2.98,3.4,.09,0,.19,0,.28,0,1.77-.02,3.18-1.47,3.16-3.23,0-.09,0-.18-.01-.27v-7.41h2.21v7.78c.05,2.78-2.18,5.08-4.96,5.12-.15,0-.3,0-.45-.01-2.78,.2-5.2-1.89-5.4-4.68-.01-.16-.02-.31-.01-.47v-7.74h2.21Z"/>
  <path id="Trazado_2265" data-name="Trazado 2265" class="cls-1" d="M223.13,46.5v7.51c-.12,1.76,1.22,3.29,2.98,3.4,.09,0,.19,0,.28,0,1.77-.02,3.18-1.47,3.16-3.23,0-.09,0-.18-.01-.27v-7.41h2.21v7.78c.04,2.79-2.18,5.08-4.96,5.12-.15,0-.3,0-.45-.01-2.78,.2-5.2-1.89-5.4-4.68-.01-.15-.02-.31-.01-.46v-7.74h2.21Z"/>
  <path id="Trazado_2266" data-name="Trazado 2266" class="cls-1" d="M205.67,49.88l1.42-1.58c-1.34-1.36-3.19-2.1-5.1-2.04-3.56,.04-6.41,2.97-6.37,6.53,0,.05,0,.1,0,.14-.05,3.54,2.78,6.44,6.32,6.49h.07c1.94,0,3.79-.8,5.13-2.19l-1.42-1.48c-.98,.98-2.29,1.57-3.67,1.67-2.35-.2-4.16-2.15-4.2-4.51-.06-2.4,1.77-4.43,4.17-4.6,1.38,.01,2.69,.58,3.64,1.58"/>
  <path id="Trazado_2268" data-name="Trazado 2268" class="cls-1" d="M252.43,46.5l-5.61,12.66h2.27l1.25-3.04h6.01l1.3,3.04h2.35l-5.5-12.66h-2.08Zm.94,2.68l2.19,4.94-4.36,.04,2.16-4.98Z"/>
  <path id="Trazado_2269" data-name="Trazado 2269" class="cls-1" d="M124.66,46.5l-5.61,12.66h2.27l1.25-3.04h6.01l1.29,3.04h2.35l-5.5-12.66h-2.08Zm.94,2.68l2.19,4.94-4.36,.04,2.16-4.98Z"/>
  <path id="Trazado_2270" data-name="Trazado 2270" class="cls-1" d="M153.83,49.66l1.27-1.66c-1.25-1.07-2.85-1.66-4.5-1.66-2.17-.25-4.13,1.3-4.38,3.47v.06c0,1.72,.56,3.2,4.28,4.03,2.58,.59,2.84,1.3,2.75,2.1s-.95,1.66-2.72,1.42c-1.28-.27-2.48-.84-3.5-1.66l-1.36,1.57c1.44,1.27,3.27,1.99,5.18,2.05,3-.03,4.63-1.72,4.63-3.88s-1.88-3.14-3.94-3.68-3.23-.86-3.23-2.06,1.72-1.75,3.05-1.36c.89,.28,1.72,.71,2.46,1.27"/>
</svg>