<?xml version="1.0" encoding="utf-8"?>
<!-- Generator: Adobe Illustrator 26.0.3, SVG Export Plug-In . SVG Version: 6.00 Build 0)  -->
<svg version="1.1" id="Capa_1" xmlns="http://www.w3.org/2000/svg" xmlns:xlink="http://www.w3.org/1999/xlink" x="0px" y="0px"
	 viewBox="0 0 643.6 49.6" style="enable-background:new 0 0 643.6 49.6;" xml:space="preserve">
<style type="text/css">
	.st0{fill:#FFFFFF;}
	.st1{fill:#A63492;}
	.st2{fill:#001689;}
	.st3{enable-background:new    ;}
	.st4{fill:#0F80FF;}
</style>
<path id="Trazado_2322" class="st0" d="M27.4,0.2L0.2,49.8h141.4l27.2-49.6C168.8,0.2,27.4,0.2,27.4,0.2z"/>
<g id="Grupo_2330" transform="translate(195.784)">
	<path id="Trazado_2325" class="st1" d="M0.2,0.2L-27,49.8h165l27.6-49.6C165.6,0.2,0.2,0.2,0.2,0.2z"/>
</g>
<g id="Grupo_2332" transform="translate(180.008 28.709)">
	<path id="Trazado_2328" class="st0" d="M-5.2-1.6v-1.8h-5.3v-5.5h-2v5.5h-5.3v1.8h5.3v5.5h2v-5.5C-10.5-1.6-5.2-1.6-5.2-1.6z"/>
</g>
<g id="Grupo_2333" transform="translate(388.319 0.001)">
	<path id="Trazado_2329" class="st2" d="M0.2,0.2L-27,49.8h255.3l27.2-49.6C255.5,0.2,0.2,0.2,0.2,0.2z"/>
</g>
<path id="Trazado_2332" class="st0" d="M365.6,21.9h-12.5V24h12.5V21.9z M365.6,28.4h-12.5v2.1h12.5V28.4z"/>
<g class="st3">
	<path class="st4" d="M45.1,27.8c0,1.7-1.1,2.9-3.6,2.9c-1.5,0-2.8-0.6-3.5-1.7l1.3-1.2c0.6,0.7,1.5,1,2.3,1c1.1,0,1.6-0.3,1.6-1
		c0-0.6-0.3-0.8-2-1.2c-1.7-0.4-2.8-0.9-2.8-2.7c0-1.7,1.5-2.7,3.2-2.7c1.4,0,2.5,0.5,3.3,1.4L43.6,24c-0.6-0.6-1.2-0.9-2.1-0.9
		c-1,0-1.3,0.4-1.3,0.8c0,0.6,0.4,0.8,1.8,1.1C43.5,25.3,45.1,25.8,45.1,27.8z"/>
	<path class="st4" d="M54.2,30.6h-6.5v-9.1H54v1.8h-4.5v1.6h2.6v1.8h-2.6v2.2h4.7V30.6z"/>
	<path class="st4" d="M65.4,30.6h-1.8v-3.3c0-0.5,0-1.7,0-2c-0.1,0.3-0.4,1-0.6,1.5l-1.8,4l-1.8-4c-0.2-0.5-0.5-1.2-0.6-1.5
		c0,0.4,0,1.5,0,2v3.3H57v-9.1h1.8l1.9,4.1c0.2,0.5,0.5,1.2,0.6,1.5c0.1-0.3,0.4-1,0.6-1.5l1.8-4.1h1.8v9.1H65.4z"/>
	<path class="st4" d="M75.6,24.4c0,2.1-1.4,3-3.3,3h-2v3.2h-1.8v-9.1h4C74.2,21.5,75.6,22.4,75.6,24.4z M73.8,24.4
		c0-0.8-0.5-1.2-1.3-1.2h-2.1v2.3h2.1C73.3,25.6,73.8,25.2,73.8,24.4z"/>
	<path class="st4" d="M85.5,30.6h-2.1l-1.6-3.3H80v3.3h-1.8v-9.1h4.2c1.7,0,3.1,0.9,3.1,2.9c0,1.4-0.6,2.2-1.7,2.7L85.5,30.6z
		 M83.6,24.4c0-0.8-0.5-1.2-1.3-1.2h-2.4v2.3h2.4C83.1,25.6,83.6,25.2,83.6,24.4z"/>
	<path class="st4" d="M96,30.6h-2l-0.7-2H90l-0.7,2h-2l3.5-9.1h1.8L96,30.6z M92.6,26.8L92,25.1c-0.2-0.5-0.4-1.1-0.5-1.4
		c-0.1,0.3-0.3,0.9-0.5,1.4l-0.6,1.7H92.6z"/>
	<path class="st4" d="M109.3,30.6h-6.4v-9.1h1.8v7.3h4.6V30.6z"/>
	<path class="st4" d="M119.1,30.6h-1.6l-3.3-5c-0.2-0.3-0.5-0.8-0.6-1c0,0.3,0,1.5,0,2v4h-1.8v-9.1h1.7l3.2,4.8
		c0.2,0.3,0.5,0.8,0.6,1c0-0.3,0-1.5,0-2v-3.8h1.8C119.1,21.5,119.1,30.6,119.1,30.6z"/>
	<path class="st4" d="M129.3,27c0,2.3-1.5,3.7-3.7,3.7c-2.4,0-4-1.8-4-4.7c0-2.8,1.7-4.7,4-4.7c1.9,0,2.8,0.9,3.4,2.3l-1.7,0.7
		c-0.3-0.7-0.8-1.2-1.7-1.2c-1.4,0-2.1,1.2-2.1,2.9c0,1.7,0.8,2.9,2.2,2.9c1.2,0,1.7-0.6,1.8-1.4h-1.4v-1.7h3.3V27H129.3z"/>
</g>
<g class="st3">
	<path class="st0" d="M243.6,30.6h-1.8v-9.1h1.8V30.6z"/>
	<path class="st0" d="M253.3,30.6h-6.5v-9.1h6.3v1.8h-4.5v1.6h2.6v1.8h-2.6v2.2h4.7V30.6z"/>
	<path class="st0" d="M263.3,30.6h-1.6l-3.3-5c-0.2-0.3-0.5-0.8-0.6-1c0,0.3,0,1.5,0,2v4H256v-9.1h1.7l3.2,4.8
		c0.2,0.3,0.5,0.8,0.6,1c0-0.3,0-1.5,0-2v-3.8h1.8L263.3,30.6L263.3,30.6z"/>
	<path class="st0" d="M273.9,26c0,2.9-1.7,4.7-4,4.7c-2.4,0-4-1.7-4-4.7s1.7-4.7,4-4.7C272.3,21.3,273.9,23.1,273.9,26z M272.1,26
		c0-1.8-0.9-2.9-2.2-2.9c-1.3,0-2.1,1-2.1,2.9c0,1.8,0.9,2.9,2.2,2.9C271.2,28.9,272.1,27.9,272.1,26z"/>
	<path class="st0" d="M283.5,21.5l-3.2,9.1h-1.8l-3.2-9.1h2l1.7,5.3c0.2,0.5,0.4,1.2,0.4,1.5c0.1-0.3,0.2-1,0.4-1.5l1.7-5.3H283.5z"
		/>
	<path class="st0" d="M292.5,30.6h-2l-0.7-2h-3.3l-0.7,2h-2l3.5-9.1h1.8L292.5,30.6z M289.2,26.8l-0.6-1.7c-0.2-0.5-0.4-1.1-0.5-1.4
		c-0.1,0.3-0.3,0.9-0.5,1.4l-0.6,1.7H289.2z"/>
</g>
<g>
	<path class="st0" d="M409.2,27.8c0,1.7-1.1,2.9-3.6,2.9c-1.5,0-2.8-0.6-3.5-1.7l1.3-1.2c0.6,0.7,1.5,1,2.3,1c1.1,0,1.6-0.3,1.6-1
		c0-0.6-0.3-0.8-2-1.2c-1.7-0.4-2.8-0.9-2.8-2.7c0-1.7,1.5-2.7,3.2-2.7c1.4,0,2.5,0.5,3.3,1.4l-1.3,1.3c-0.6-0.6-1.2-0.9-2.1-0.9
		c-1,0-1.3,0.4-1.3,0.8c0,0.6,0.4,0.8,1.8,1.1C407.6,25.3,409.2,25.8,409.2,27.8z"/>
	<path class="st0" d="M418.4,30.6h-6.5v-9.1h6.3v1.8h-4.5v1.6h2.6v1.8h-2.6v2.2h4.7V30.6z"/>
	<path class="st0" d="M429.6,30.6h-1.8v-3.3c0-0.5,0-1.7,0-2c-0.1,0.3-0.4,1-0.6,1.5l-1.8,4l-1.8-4c-0.2-0.5-0.5-1.2-0.6-1.5
		c0,0.4,0,1.5,0,2v3.3h-1.8v-9.1h1.8l1.9,4.1c0.2,0.5,0.5,1.2,0.6,1.5c0.1-0.3,0.4-1,0.6-1.5l1.8-4.1h1.8v9.1H429.6z"/>
	<path class="st0" d="M439.8,24.4c0,2.1-1.4,3-3.3,3h-2v3.2h-1.8v-9.1h4C438.3,21.5,439.8,22.4,439.8,24.4z M437.9,24.4
		c0-0.8-0.5-1.2-1.3-1.2h-2.1v2.3h2.1C437.4,25.6,437.9,25.2,437.9,24.4z"/>
	<path class="st0" d="M449.6,30.6h-2.1l-1.6-3.3h-1.8v3.3h-1.8v-9.1h4.2c1.7,0,3.1,0.9,3.1,2.9c0,1.4-0.6,2.2-1.7,2.7L449.6,30.6z
		 M447.7,24.4c0-0.8-0.5-1.2-1.3-1.2H444v2.3h2.4C447.3,25.6,447.7,25.2,447.7,24.4z"/>
	<path class="st0" d="M460.1,30.6h-2l-0.7-2h-3.3l-0.7,2h-2l3.5-9.1h1.8L460.1,30.6z M456.8,26.8l-0.6-1.7c-0.2-0.5-0.4-1.1-0.5-1.4
		c-0.1,0.3-0.3,0.9-0.5,1.4l-0.6,1.7H456.8z"/>
	<path class="st0" d="M469,30.6h-1.8v-9.1h1.8V30.6z"/>
	<path class="st0" d="M479.6,30.6H478l-3.3-5c-0.2-0.3-0.5-0.8-0.6-1c0,0.3,0,1.5,0,2v4h-1.8v-9.1h1.7l3.2,4.8
		c0.2,0.3,0.5,0.8,0.6,1c0-0.3,0-1.5,0-2v-3.8h1.8L479.6,30.6L479.6,30.6z"/>
	<path class="st0" d="M489.2,23.2h-4.7V25h2.7v1.8h-2.7v3.8h-1.8v-9.1h6.5V23.2z"/>
	<path class="st0" d="M498.9,30.6h-2.1l-1.6-3.3h-1.8v3.3h-1.8v-9.1h4.2c1.7,0,3.1,0.9,3.1,2.9c0,1.4-0.6,2.2-1.7,2.7L498.9,30.6z
		 M497,24.4c0-0.8-0.5-1.2-1.3-1.2h-2.4v2.3h2.4C496.6,25.6,497,25.2,497,24.4z"/>
	<path class="st0" d="M509.4,30.6h-2l-0.7-2h-3.3l-0.7,2h-2l3.5-9.1h1.8L509.4,30.6z M506.1,26.8l-0.6-1.7c-0.2-0.5-0.4-1.1-0.5-1.4
		c-0.1,0.3-0.3,0.9-0.5,1.4l-0.6,1.7H506.1z"/>
	<path class="st0" d="M604.9,30.6h-2l-0.7-2h-3.3l-0.7,2h-2l3.5-9.1h1.8L604.9,30.6z M601.6,26.8l-0.6-1.7c-0.2-0.5-0.4-1.1-0.5-1.4
		c-0.1,0.3-0.3,0.9-0.5,1.4l-0.6,1.7H601.6z"/>
	<path class="st0" d="M527.1,27.8c0,1.7-1.1,2.9-3.6,2.9c-1.5,0-2.8-0.6-3.5-1.7l1.3-1.2c0.6,0.7,1.5,1,2.3,1c1.1,0,1.6-0.3,1.6-1
		c0-0.6-0.3-0.8-2-1.2c-1.7-0.4-2.8-0.9-2.8-2.7c0-1.7,1.5-2.7,3.2-2.7c1.4,0,2.5,0.5,3.3,1.4l-1.3,1.3c-0.6-0.6-1.2-0.9-2.1-0.9
		c-1,0-1.3,0.4-1.3,0.8c0,0.6,0.4,0.8,1.8,1.1C525.5,25.3,527.1,25.8,527.1,27.8z"/>
	<path class="st0" d="M535.9,23.3h-2.6v7.3h-1.8v-7.3h-2.6v-1.8h7L535.9,23.3L535.9,23.3z"/>
	<path class="st0" d="M545.8,30.6h-2.1l-1.6-3.3h-1.8v3.3h-1.8v-9.1h4.2c1.7,0,3.1,0.9,3.1,2.9c0,1.4-0.6,2.2-1.7,2.7L545.8,30.6z
		 M543.9,24.4c0-0.8-0.5-1.2-1.3-1.2h-2.4v2.3h2.4C543.4,25.6,543.9,25.2,543.9,24.4z"/>
	<path class="st0" d="M555.6,26.5c0,2.6-1.4,4.2-3.7,4.2c-2.2,0-3.7-1.5-3.7-4.1v-5.1h1.8v5.1c0,1.5,0.7,2.4,1.9,2.4
		s1.9-0.9,1.9-2.4v-5.1h1.8V26.5z"/>
	<path class="st0" d="M565.5,23.3l-1.7,0.8c-0.3-0.6-0.8-1-1.7-1c-1.4,0-2.1,1.2-2.1,2.9c0,1.6,0.8,2.9,2.2,2.9
		c0.8,0,1.3-0.4,1.8-1.2l1.5,0.9c-0.6,1.3-1.7,2.1-3.4,2.1c-2.4,0-4-1.8-4-4.7c0-2.8,1.7-4.7,4-4.7
		C563.9,21.3,564.9,22.2,565.5,23.3z"/>
	<path class="st0" d="M574.3,23.3h-2.6v7.3h-1.8v-7.3h-2.6v-1.8h7V23.3z"/>
	<path class="st0" d="M584.1,26.5c0,2.6-1.4,4.2-3.7,4.2c-2.2,0-3.7-1.5-3.7-4.1v-5.1h1.8v5.1c0,1.5,0.7,2.4,1.9,2.4
		s1.9-0.9,1.9-2.4v-5.1h1.8V26.5z"/>
	<path class="st0" d="M594.5,30.6h-2.1l-1.6-3.3H589v3.3h-1.8v-9.1h4.2c1.7,0,3.1,0.9,3.1,2.9c0,1.4-0.6,2.2-1.7,2.7L594.5,30.6z
		 M592.6,24.4c0-0.8-0.5-1.2-1.3-1.2h-2.4v2.3h2.4C592.2,25.6,592.6,25.2,592.6,24.4z"/>
	<path class="st0" d="M518,30.6h-6.5v-9.1h6.3v1.8h-4.5v1.6h2.6v1.8h-2.6v2.2h4.7V30.6z"/>
</g>
</svg>
