<?xml version="1.0" encoding="utf-8"?>
<!-- Generator: Adobe Illustrator 26.0.3, SVG Export Plug-In . SVG Version: 6.00 Build 0)  -->
<svg version="1.1" id="Capa_1" xmlns="http://www.w3.org/2000/svg" xmlns:xlink="http://www.w3.org/1999/xlink" x="0px" y="0px"
	 viewBox="0 0 262.7 143.3" style="enable-background:new 0 0 262.7 143.3;" xml:space="preserve">
<style type="text/css">
	.st0{fill:#FFFFFF;}
</style>
<g>
	<g>
		<path class="st0" d="M-0.4,34.7V22.7H8v2.4H2.1v2.1h3.5v2.4H2.1v2.9h6.2v2.4L-0.4,34.7L-0.4,34.7z"/>
		<path class="st0" d="M25.6,34.9c-2,0-3.8-0.8-4.6-2.2l1.7-1.5c0.8,1,1.9,1.4,3.1,1.4c1.4,0,2.1-0.4,2.1-1.3c0-0.7-0.4-1.1-2.7-1.6
			c-2.2-0.5-3.8-1.3-3.8-3.6c0-2.2,1.9-3.5,4.3-3.5c1.8,0,3.2,0.7,4.3,1.9L28.3,26c-0.7-0.8-1.6-1.3-2.7-1.3c-1.3,0-1.7,0.5-1.7,1.1
			c0,0.7,0.5,1,2.4,1.5c1.9,0.4,4,1.1,4,3.7C30.3,33.3,28.8,34.9,25.6,34.9z"/>
		<path class="st0" d="M59.7,34.7V22.7h2.4v9.7h6v2.4L59.7,34.7L59.7,34.7z"/>
		<path class="st0" d="M89.2,34.7l-1-2.7h-4.4l-1,2.7h-2.6l4.6-12h2.4l4.6,12H89.2z M86.7,27.6c-0.2-0.7-0.5-1.4-0.6-1.8
			c-0.1,0.4-0.4,1.2-0.6,1.8l-0.7,2.2h2.7L86.7,27.6z"/>
		<path class="st0" d="M121,34.7V22.7h8.3v2.4h-5.9v2.1h3.5v2.4h-3.5v2.9h6.2v2.4L121,34.7L121,34.7z"/>
		<path class="st0" d="M150.7,34.7l-4.4-6.6c-0.3-0.4-0.7-1-0.8-1.3c0,0.4,0,2,0,2.7v5.3h-2.4v-12h2.3l4.3,6.3
			c0.3,0.4,0.7,1,0.8,1.3c0-0.4,0-2,0-2.7v-5h2.4v12L150.7,34.7L150.7,34.7z"/>
		<path class="st0" d="M166.8,34.7V22.7h8.3v2.4h-5.9v2.1h3.5v2.4h-3.5v2.9h6.2v2.4L166.8,34.7L166.8,34.7z"/>
		<path class="st0" d="M195.9,34.7l-2.1-4.3h-2.4v4.3h-2.4V22.7h5.6c2.3,0,4.1,1.3,4.1,3.8c0,1.8-0.7,2.9-2.3,3.5l2.3,4.6
			L195.9,34.7L195.9,34.7z M194.4,25h-3.2v3.1h3.2c1.1,0,1.7-0.5,1.7-1.5C196.1,25.4,195.5,25,194.4,25z"/>
		<path class="st0" d="M216.7,34.9c-3.2,0-5.2-2.4-5.2-6.2c0-3.7,2.2-6.2,5.3-6.2c2.4,0,3.8,1.2,4.6,3l-2.3,1
			c-0.4-0.9-1-1.5-2.3-1.5c-1.8,0-2.8,1.5-2.8,3.8c0,2.2,1,3.8,2.9,3.8c1.6,0,2.2-0.7,2.4-1.8h-1.9v-2.2h4.3v1.5
			C221.5,33.1,219.5,34.9,216.7,34.9z"/>
		<path class="st0" d="M237.2,21.9h-2l1.5-2.7h3L237.2,21.9z M235.2,34.7V22.7h2.4v12L235.2,34.7L235.2,34.7z"/>
		<path class="st0" d="M259.8,34.7l-1-2.7h-4.4l-1,2.7h-2.6l4.6-12h2.4l4.6,12H259.8z M257.3,27.6c-0.2-0.7-0.5-1.4-0.6-1.8
			c-0.1,0.4-0.4,1.2-0.6,1.8l-0.7,2.2h2.7L257.3,27.6z"/>
	</g>
	<g>
		<path class="st0" d="M3.3,79.7h-3.6v-12h3.8c3.5,0,6,1.6,6,6C9.4,77.9,6.3,79.7,3.3,79.7z M3.3,70H2.1v7.4h1.2
			c2.5,0,3.7-1.5,3.7-3.7C6.9,71.2,5.8,70,3.3,70z"/>
		<path class="st0" d="M22.7,79.7v-12H31V70h-5.9v2.1h3.5v2.4h-3.5v2.9h6.2v2.4C31.3,79.7,22.7,79.7,22.7,79.7z"/>
		<path class="st0" d="M68.3,79.7l-4.4-6.6c-0.3-0.4-0.7-1-0.8-1.3c0,0.4,0,2,0,2.7v5.3h-2.4V67.7H63l4.3,6.3c0.3,0.4,0.7,1,0.8,1.3
			c0-0.4,0-2,0-2.7v-5.1h2.4v12L68.3,79.7L68.3,79.7z"/>
		<path class="st0" d="M89.2,79.9c-2.9,0-4.9-2-4.9-5.5v-6.7h2.4v6.7c0,1.9,1,3.2,2.4,3.2c1.5,0,2.4-1.2,2.4-3.1v-6.7h2.4v6.7
			C94.1,77.8,92.3,79.9,89.2,79.9z"/>
		<path class="st0" d="M108.1,79.7v-12h8.3V70h-5.9v2.1h3.5v2.4h-3.5v2.9h6.2v2.4C116.7,79.7,108.1,79.7,108.1,79.7z"/>
		<path class="st0" d="M134,79.9c-2,0-3.8-0.8-4.6-2.2l1.7-1.5c0.8,1,1.9,1.4,3.1,1.4c1.4,0,2.1-0.4,2.1-1.3c0-0.7-0.4-1.1-2.7-1.6
			c-2.2-0.5-3.8-1.3-3.8-3.6c0-2.2,1.9-3.5,4.3-3.5c1.8,0,3.2,0.7,4.3,1.9l-1.7,1.7c-0.7-0.8-1.6-1.3-2.7-1.3
			c-1.3,0-1.7,0.5-1.7,1.1c0,0.7,0.5,1,2.4,1.5c1.9,0.4,4,1.1,4,3.7C138.7,78.3,137.3,79.9,134,79.9z"/>
		<path class="st0" d="M156.9,70v9.7h-2.4V70H151v-2.4h9.3V70H156.9z"/>
		<path class="st0" d="M180.5,79.7l-2.1-4.3h-2.4v4.3h-2.4v-12h5.6c2.3,0,4.1,1.3,4.1,3.8c0,1.8-0.7,2.9-2.3,3.5l2.3,4.6H180.5z
			 M179.1,70h-3.2v3.1h3.2c1.1,0,1.7-0.5,1.7-1.5C180.8,70.5,180.1,70,179.1,70z"/>
		<path class="st0" d="M201.4,79.9c-3.2,0-5.3-2.3-5.3-6.2s2.2-6.2,5.3-6.2c3.1,0,5.2,2.3,5.2,6.2C206.7,77.5,204.4,79.9,201.4,79.9
			z M201.4,69.9c-1.7,0-2.8,1.3-2.8,3.8c0,2.4,1.2,3.8,2.9,3.8s2.8-1.3,2.8-3.8S203,69.9,201.4,69.9z"/>
	</g>
	<g>
		<path class="st0" d="M2.1,115v2.3h3.6v2.4H2.1v5.1h-2.4v-12h8.6v2.4L2.1,115L2.1,115z"/>
		<path class="st0" d="M26.1,124.8c-2.9,0-4.9-2-4.9-5.5v-6.7h2.4v6.7c0,1.9,1,3.2,2.4,3.2c1.5,0,2.4-1.2,2.4-3.1v-6.7H31v6.7
			C31,122.8,29.1,124.8,26.1,124.8z"/>
		<path class="st0" d="M50,115v9.7h-2.4V115h-3.5v-2.4h9.4v2.4H50z"/>
		<path class="st0" d="M71.4,124.8c-2.9,0-4.9-2-4.9-5.5v-6.7H69v6.7c0,1.9,1,3.2,2.4,3.2c1.5,0,2.4-1.2,2.4-3.1v-6.7h2.4v6.7
			C76.3,122.8,74.5,124.8,71.4,124.8z"/>
		<path class="st0" d="M97.2,124.6l-2.1-4.3h-2.4v4.3h-2.4v-12h5.6c2.3,0,4.1,1.3,4.1,3.8c0,1.8-0.7,2.9-2.3,3.5l2.3,4.6H97.2z
			 M95.8,114.9h-3.2v3.1h3.2c1.1,0,1.7-0.5,1.7-1.5C97.5,115.4,96.8,114.9,95.8,114.9z"/>
		<path class="st0" d="M118,124.8c-3.2,0-5.3-2.3-5.3-6.2c0-3.9,2.2-6.2,5.3-6.2c3.1,0,5.2,2.3,5.2,6.2
			C123.3,122.5,121.2,124.8,118,124.8z M118,114.8c-1.7,0-2.8,1.3-2.8,3.8s1.2,3.8,2.9,3.8c1.7,0,2.8-1.3,2.8-3.8
			C120.9,116.2,119.7,114.8,118,114.8z"/>
	</g>
</g>
</svg>
