<?xml version="1.0" encoding="utf-8"?>
<!-- Generator: Adobe Illustrator 26.0.3, SVG Export Plug-In . SVG Version: 6.00 Build 0)  -->
<svg version="1.1" id="Capa_1" xmlns="http://www.w3.org/2000/svg" xmlns:xlink="http://www.w3.org/1999/xlink" x="0px" y="0px"
	 viewBox="0 0 521.2 79" style="enable-background:new 0 0 521.2 79;" xml:space="preserve">
<style type="text/css">
	.st0{fill:#FFFFFF;}
</style>
<g>
	<path class="st0" d="M19.6,66.1C11.1,66.1,3.8,62.6,0,57l7.3-6.5c3.5,4.1,8.1,5.8,12.9,5.8c6,0,8.8-1.7,8.8-5.5
		c0-3.2-1.7-4.7-11.2-6.8c-9.3-2.2-15.8-5.1-15.8-15c0-9.1,8.1-14.7,18-14.7c7.8,0,13.6,2.9,18.3,7.9l-7.3,7
		c-3.2-3.3-6.8-5.2-11.4-5.2c-5.4,0-7.2,2.3-7.2,4.5c0,3.2,2.2,4.2,10.1,6c8,1.9,16.8,4.6,16.8,15.5C39.3,59.6,33.3,66.1,19.6,66.1z
		"/>
	<path class="st0" d="M70.1,65.3v-2.5c-1.7,1.8-4.9,3.3-8.8,3.3c-9.6,0-14-6.6-14-17.3V27.6h9.9V48c0,6.8,2.3,8.8,6.4,8.8
		c4.1,0,6.5-2,6.5-8.6V27.6H80v37.8H70.1z"/>
	<path class="st0" d="M104.1,66.1c-6,0-11.8-1.7-15.8-4.4l3.3-7.6c4,2.2,8.3,3.5,13.1,3.5c3.9,0,5-0.9,5-2.9c0-1.7-1.4-2.6-5.5-3.8
		c-9.1-2.7-14.9-5-14.9-12.9c0-7.8,6.3-11.2,15.1-11.2c4.7,0,9.9,1.4,14,3.7l-3.2,7.8c-3.7-2-7.8-3-11-3c-4,0-5.1,0.8-5.1,2.4
		c0,1.6,1.2,2.2,7.8,4.4c6.8,2.2,12.6,4.7,12.6,12.2C119.5,63,112.6,66.1,104.1,66.1z"/>
	<path class="st0" d="M148.6,63.8c-1.7,1.3-4.6,2.3-7.7,2.3c-6.1,0-10.1-4.7-10.1-11.4V36.9h-6.3v-9.4h6.3v-9.7l9.9-5v14.7h9.1v9.4
		h-9.1v15.2c0,3.6,1.3,4.5,3.7,4.5c1.8,0,3.2-0.8,5.6-2.9L148.6,63.8z"/>
	<path class="st0" d="M188.4,49.7h-22.6c0.4,5.2,4.2,7.1,7.8,7.1c2.7,0,5-1,6.5-2.7l7,5.9c-3,3.9-8.5,6.1-13.5,6.1
		c-10.9,0-17.8-7.7-17.8-19.6c0-11.6,7.3-19.7,16.8-19.7c10.1,0,15.9,8.9,15.9,19.7C188.6,47.9,188.5,48.9,188.4,49.7z M172.2,35.4
		c-3.6,0-5.8,2.9-6.2,6.8h12.9C178.7,38.8,176.6,35.4,172.2,35.4z"/>
	<path class="st0" d="M219.3,65.3V44.9c0-6.8-2.3-8.8-6.4-8.8c-4.1,0-6.5,2-6.5,8.6v20.6h-9.9V27.6h9.9v2.5c1.7-1.8,4.9-3.3,8.8-3.3
		c9.6,0,14,6.6,14,17.3v21.3H219.3z"/>
	<path class="st0" d="M259.2,63.8c-1.7,1.3-4.6,2.3-7.7,2.3c-6.1,0-10.1-4.7-10.1-11.4V36.9h-6.3v-9.4h6.3v-9.7l9.9-5v14.7h9.1v9.4
		h-9.1v15.2c0,3.6,1.3,4.5,3.7,4.5c1.8,0,3.2-0.8,5.6-2.9L259.2,63.8z"/>
	<path class="st0" d="M289.6,65.3v-2.5c-1.8,1.9-5,3.3-8.5,3.3c-7,0-14.1-4.3-14.1-13.4c0-8.3,6.8-12.5,15.3-12.5
		c3.5,0,5.7,0.7,7.3,1.5v-1.9c0-2.7-1.8-4.8-5.4-4.8c-4.5,0-6.9,0.6-10.4,2.5l-3.8-6.9c4.4-2.5,8.1-3.8,14.2-3.8
		c9.1,0,15.3,4.7,15.3,13.2v25.3H289.6z M289.6,49.5c-1.7-1.1-3.4-1.6-6.9-1.6c-3.7,0-5.8,1.7-5.8,4.7c0,2.7,1.5,5,5.8,5
		c3.2,0,5.8-1.7,6.9-3.5V49.5z"/>
	<path class="st0" d="M326.7,66.1c-3.3,0-6.2-1.3-8-2.9v2.2h-9.9V17.9l9.9-5v17c1.9-1.7,4.4-3.2,8-3.2c8.1,0,14.7,6,14.7,20.1
		C341.4,58.2,336.1,66.1,326.7,66.1z M324.9,36.1c-3.1,0-4.7,1.3-6.1,3.2v14.2c1.5,2.1,3.8,3.2,6.7,3.2c3.8,0,5.9-3.3,5.9-9.6
		C331.3,39.4,328.8,36.1,324.9,36.1z"/>
	<path class="st0" d="M354.6,24.5c-3.1,0-5.7-2.6-5.7-5.7c0-3.1,2.6-5.7,5.7-5.7c3.1,0,5.7,2.6,5.7,5.7
		C360.3,21.9,357.7,24.5,354.6,24.5z M349.6,65.3V27.6h9.9v37.8H349.6z"/>
	<path class="st0" d="M369.9,65.3V17.9l9.9-5v52.4H369.9z"/>
	<path class="st0" d="M395.1,24.5c-3.1,0-5.7-2.6-5.7-5.7c0-3.1,2.6-5.7,5.7-5.7c3.1,0,5.7,2.6,5.7,5.7
		C400.8,21.9,398.2,24.5,395.1,24.5z M390.2,65.3V27.6h9.9v37.8H390.2z"/>
	<path class="st0" d="M430.8,65.3V63c-1.9,1.7-4.4,3.2-8,3.2c-8.1,0-14.7-6-14.7-20.1c0-11.3,5.3-19.2,14.7-19.2
		c3.3,0,6.2,1.3,8,2.9V17.9l9.9-5v52.4H430.8z M430.8,39.4c-1.5-2.1-3.8-3.2-6.7-3.2c-3.8,0-5.9,3.3-5.9,9.6c0,7.8,2.6,11,6.5,11
		c3.1,0,4.7-1.3,6.1-3.2V39.4z"/>
	<path class="st0" d="M471.3,65.3v-2.5c-1.8,1.9-5,3.3-8.5,3.3c-7,0-14.1-4.3-14.1-13.4c0-8.3,6.8-12.5,15.3-12.5
		c3.5,0,5.7,0.7,7.3,1.5v-1.9c0-2.7-1.8-4.8-5.4-4.8c-4.5,0-6.9,0.6-10.4,2.5l-3.8-6.9c4.4-2.5,8.1-3.8,14.2-3.8
		c9.1,0,15.3,4.7,15.3,13.2v25.3H471.3z M471.3,49.5c-1.7-1.1-3.4-1.6-6.9-1.6c-3.7,0-5.8,1.7-5.8,4.7c0,2.7,1.5,5,5.8,5
		c3.2,0,5.8-1.7,6.9-3.5V49.5z"/>
	<path class="st0" d="M511.2,65.3V63c-1.9,1.7-4.4,3.2-8,3.2c-8.1,0-14.7-6-14.7-20.1c0-11.3,5.3-19.2,14.7-19.2
		c3.3,0,6.2,1.3,8,2.9V17.9l9.9-5v52.4H511.2z M511.2,39.4c-1.5-2.1-3.8-3.2-6.7-3.2c-3.8,0-5.9,3.3-5.9,9.6c0,7.8,2.6,11,6.5,11
		c3.1,0,4.7-1.3,6.1-3.2V39.4z"/>
</g>
</svg>
