<?xml version="1.0" encoding="utf-8"?>
<!-- Generator: Adobe Illustrator 26.0.3, SVG Export Plug-In . SVG Version: 6.00 Build 0)  -->
<svg version="1.1" id="a" xmlns="http://www.w3.org/2000/svg" xmlns:xlink="http://www.w3.org/1999/xlink" x="0px" y="0px"
	 viewBox="0 0 203.1 61.6" style="enable-background:new 0 0 203.1 61.6;" xml:space="preserve">
<style type="text/css">
	.st0{fill:#FFFFFF;}
</style>
<g>
	<path class="st0" d="M16.9,54.1c-8.8,0-14.6-5.3-16.8-13l8.6-2.3c1.7,4.5,4,6.6,8.2,6.6c5.4,0,7.9-3.5,7.9-10.1V9.4h8.8V35
		C33.6,46.5,28.4,54.1,16.9,54.1z"/>
	<path class="st0" d="M62.7,53.4v-2.2c-1.5,1.6-4.3,2.9-7.7,2.9c-8.4,0-12.2-5.8-12.2-15.1V20.4h8.7v17.9c0,5.9,2,7.7,5.6,7.7
		s5.7-1.8,5.7-7.5v-18h8.7v33H62.7z"/>
	<path class="st0" d="M99.8,53.4V35.5c0-5.9-2-7.7-5.6-7.7c-3.6,0-5.7,1.8-5.7,7.5v18h-8.7v-33h8.7v2.2c1.5-1.6,4.3-2.9,7.7-2.9
		c8.4,0,12.2,5.8,12.2,15.1v18.6H99.8z"/>
	<path class="st0" d="M134.7,52.1c-1.4,1.1-4,2-6.7,2c-5.3,0-8.8-4.1-8.8-9.9V28.5h-5.5v-8.2h5.5v-8.5l8.7-4.3v12.8h7.9v8.2h-7.9
		v13.3c0,3.1,1.1,4,3.2,4c1.6,0,2.8-0.7,4.9-2.5L134.7,52.1z"/>
	<path class="st0" d="M155.9,54.1c-8.6,0-14.9-7-14.9-17.2s6.3-17.2,14.9-17.2c8.6,0,15,7.1,15,17.2S164.5,54.1,155.9,54.1z
		 M155.9,28c-4.1,0-6.1,3.8-6.1,8.9s1.9,8.8,6.1,8.8c4.1,0,6.2-4.2,6.2-8.8C162.1,31.9,160,28,155.9,28z"/>
	<path class="st0" d="M189.6,54.1c-5.2,0-10.3-1.5-13.8-3.8l2.9-6.6c3.5,1.9,7.2,3,11.4,3c3.4,0,4.4-0.8,4.4-2.5
		c0-1.5-1.2-2.3-4.8-3.3c-7.9-2.4-13-4.3-13-11.3c0-6.9,5.5-9.8,13.2-9.8c4.1,0,8.7,1.3,12.2,3.2l-2.8,6.9c-3.3-1.8-6.9-2.6-9.6-2.6
		c-3.5,0-4.5,0.7-4.5,2.1c0,1.4,1,1.9,6.9,3.8c5.9,1.9,11,4.1,11,10.7C203.1,51.4,197,54.1,189.6,54.1z"/>
</g>
</svg>
