<?xml version="1.0" encoding="utf-8"?>
<!-- Generator: Adobe Illustrator 26.0.3, SVG Export Plug-In . SVG Version: 6.00 Build 0)  -->
<svg version="1.1" id="Capa_1" xmlns="http://www.w3.org/2000/svg" xmlns:xlink="http://www.w3.org/1999/xlink" x="0px" y="0px"
	 viewBox="0 0 341 79" style="enable-background:new 0 0 341 79;" xml:space="preserve">
<style type="text/css">
	.st0{fill:#FFFFFF;}
</style>
<g>
	<path class="st0" d="M14.8,64.9H0V15.4h15.5c14.1,0,24.6,6.6,24.6,24.7C40,57.5,27.5,64.9,14.8,64.9z M15.1,25H9.9v30.2h4.9
		c10.4,0,15.1-6.1,15.1-15.1C29.9,30,25.6,25,15.1,25z"/>
	<path class="st0" d="M53.5,24.8c-3,0-5.6-2.5-5.6-5.6s2.5-5.6,5.6-5.6c3,0,5.6,2.5,5.6,5.6S56.6,24.8,53.5,24.8z M48.7,64.9V27.8
		h9.7v37.1H48.7z"/>
	<path class="st0" d="M88.7,64.9h-10L65.3,27.8H76l5.4,17.2c0.9,2.8,1.9,6.4,2.3,8.1c0.4-1.8,1.4-5.2,2.3-8.1l5.4-17.2H102
		L88.7,64.9z"/>
	<path class="st0" d="M137.4,49.5h-22.2c0.4,5.1,4.1,7,7.6,7c2.7,0,4.9-1,6.4-2.6l6.9,5.8c-3,3.8-8.3,6-13.3,6
		c-10.7,0-17.4-7.6-17.4-19.3c0-11.4,7.1-19.3,16.5-19.3c9.9,0,15.6,8.8,15.6,19.3C137.5,47.8,137.5,48.8,137.4,49.5z M121.4,35.5
		c-3.5,0-5.7,2.9-6.1,6.6h12.7C127.8,38.8,125.8,35.5,121.4,35.5z"/>
	<path class="st0" d="M167,39.2c-1.6-1.4-3.5-2.4-5.6-2.4c-3.8,0-6.3,1.6-6.3,8v20.1h-9.7V27.8h9.7v2.5c1.7-1.8,4.2-3.2,7.6-3.2
		c3.2,0,5.6,1.3,6.9,2.6L167,39.2z"/>
	<path class="st0" d="M188.3,65.6c-5.9,0-11.6-1.7-15.5-4.3l3.2-7.4c4,2.2,8.1,3.4,12.8,3.4c3.8,0,4.9-0.9,4.9-2.8
		c0-1.7-1.3-2.5-5.4-3.7c-8.9-2.7-14.6-4.9-14.6-12.7c0-7.7,6.1-11,14.8-11c4.7,0,9.7,1.4,13.7,3.6l-3.1,7.7c-3.7-2-7.7-3-10.8-3
		c-4,0-5,0.8-5,2.4c0,1.6,1.1,2.2,7.7,4.3c6.6,2.2,12.4,4.6,12.4,12C203.4,62.6,196.6,65.6,188.3,65.6z"/>
	<path class="st0" d="M217.2,24.8c-3,0-5.6-2.5-5.6-5.6s2.5-5.6,5.6-5.6c3,0,5.6,2.5,5.6,5.6S220.3,24.8,217.2,24.8z M212.4,64.9
		V27.8h9.7v37.1H212.4z"/>
	<path class="st0" d="M252.3,64.9v-2.3c-1.8,1.6-4.3,3.1-7.8,3.1c-7.9,0-14.4-5.9-14.4-19.8c0-11.1,5.2-18.9,14.4-18.9
		c3.2,0,6.1,1.3,7.8,2.9V18.3l9.7-4.9v51.5H252.3z M252.3,39.4c-1.5-2-3.7-3.2-6.6-3.2c-3.7,0-5.8,3.2-5.8,9.5
		c0,7.6,2.5,10.8,6.4,10.8c3,0,4.6-1.3,6-3.1V39.4z"/>
	<path class="st0" d="M292,64.9v-2.5c-1.8,1.8-4.9,3.2-8.3,3.2c-6.9,0-13.8-4.2-13.8-13.2c0-8.2,6.6-12.3,15-12.3
		c3.4,0,5.6,0.7,7.1,1.5v-1.8c0-2.6-1.8-4.7-5.3-4.7c-4.4,0-6.8,0.6-10.2,2.5l-3.7-6.8c4.3-2.5,7.9-3.7,13.9-3.7c9,0,15,4.7,15,13
		v24.9H292z M292,49.3c-1.7-1.1-3.3-1.6-6.8-1.6c-3.7,0-5.6,1.7-5.6,4.7c0,2.6,1.5,4.9,5.6,4.9c3.2,0,5.7-1.6,6.8-3.4V49.3z"/>
	<path class="st0" d="M331.3,64.9v-2.3c-1.8,1.6-4.3,3.1-7.8,3.1c-7.9,0-14.4-5.9-14.4-19.8c0-11.1,5.2-18.9,14.4-18.9
		c3.2,0,6.1,1.3,7.8,2.9V18.3l9.7-4.9v51.5H331.3z M331.3,39.4c-1.5-2-3.7-3.2-6.6-3.2c-3.7,0-5.8,3.2-5.8,9.5
		c0,7.6,2.5,10.8,6.4,10.8c3,0,4.6-1.3,6-3.1V39.4z"/>
</g>
</svg>
