<?xml version="1.0" encoding="utf-8"?>
<!-- Generator: Adobe Illustrator 26.0.3, SVG Export Plug-In . SVG Version: 6.00 Build 0)  -->
<svg version="1.1" id="Capa_1" xmlns="http://www.w3.org/2000/svg" xmlns:xlink="http://www.w3.org/1999/xlink" x="0px" y="0px"
	 viewBox="0 0 315.7 264.1" style="enable-background:new 0 0 315.7 264.1;" xml:space="preserve">
<style type="text/css">
	.st0{fill:#FFFFFF;}
</style>
<g id="Grupo_2228" transform="translate(60.468 -1.207)">
	<path id="Trazado_2234" class="st0" d="M73.8,261.8H13.7c0.4-26.3,16.6-37.7,35.3-46c6.6-2.9,8.7-5.9,8.7-9.2
		c0-3.9-3.4-7.8-12.6-7.8s-16.5,4.1-21.8,9.2l-9.9-11.5c8.2-8.3,19.5-12.9,31.2-12.7c18.2,0,28.5,7.4,28.5,22.1
		c0,12.4-6.7,17.8-19.7,23.8c-13.7,6.2-19,11.3-20.4,17.2h40.8V261.8L73.8,261.8z"/>
</g>
<g id="Grupo_2229" transform="translate(133.883 -39.836)">
	<path id="Trazado_2235" class="st0" d="M73,261.8c0,23.4-11.4,39.8-32.4,39.8S8.5,285.4,8.5,262s11.3-39.6,32.3-39.6
		S73,238.4,73,261.8 M57.5,262c0-13.7-5.1-24.6-16.8-24.6S24.1,248,24.1,261.8c0,13.7,4.9,24.8,16.7,24.8S57.5,275.7,57.5,262"/>
</g>
<g id="Grupo_2230" transform="translate(201.92 -1.207)">
	<path id="Trazado_2236" class="st0" d="M71.6,261.8H11.5c0.4-26.3,16.6-37.7,35.3-46c6.6-2.9,8.7-5.9,8.7-9.2
		c0-3.9-3.4-7.8-12.6-7.8s-16.5,4-21.9,9.2l-9.9-11.5c8.2-8.3,19.5-12.9,31.2-12.7c18.2,0,28.5,7.4,28.5,22.1
		c0,12.4-6.7,17.8-19.8,23.8c-13.6,6.2-18.9,11.4-20.3,17.3h40.8L71.6,261.8L71.6,261.8z"/>
</g>
<g id="Grupo_2231" transform="translate(222.77 -3.74)">
	<path id="Trazado_2237" class="st0" d="M76,260.6l15.2-26.4v-47.9H78.5c-1.5,6.4-7.1,9.6-15.7,10v11.3H76V260.6L76,260.6z"/>
</g>
<g>
	<g>
		<path class="st0" d="M77.5,21V4.2h3.4v13.5h8.4V21H77.5z"/>
		<path class="st0" d="M115.6,21l-1.3-3.8h-6.2l-1.3,3.8h-3.6l6.4-16.8h3.3l6.4,16.8H115.6z M112.1,11c-0.3-1-0.7-2-0.8-2.6
			c-0.2,0.6-0.5,1.6-0.8,2.6l-1.1,3.1h3.8L112.1,11z"/>
		<path class="st0" d="M156.8,7.5v3.2h5.1v3.3h-5.1V21h-3.4V4.2h12v3.3H156.8z"/>
		<path class="st0" d="M187.2,21.3c-4.1,0-6.8-2.7-6.8-7.6V4.2h3.4v9.4c0,2.7,1.3,4.4,3.4,4.4c2.1,0,3.5-1.7,3.5-4.4V4.2h3.4v9.4
			C194,18.5,191.5,21.3,187.2,21.3z"/>
		<path class="st0" d="M210.2,21V4.2h11.7v3.3h-8.3v2.9h4.8v3.3h-4.8v4.1h8.7V21H210.2z"/>
		<path class="st0" d="M247.6,21l-3-6.1h-3.4V21h-3.4V4.2h7.8c3.2,0,5.8,1.8,5.8,5.3c0,2.5-1.1,4.1-3.2,5l3.2,6.5H247.6z M245.6,7.5
			h-4.4v4.3h4.4c1.6,0,2.4-0.7,2.4-2.2C248.1,8.1,247.1,7.5,245.6,7.5z"/>
		<path class="st0" d="M266.2,21v-3l7.2-8.6c0.5-0.6,1.5-1.8,1.9-2.2c-0.7,0-2.4,0-3.4,0h-5.3V4.2h12.7v3l-7.2,8.6
			c-0.5,0.6-1.5,1.8-1.9,2.2c0.7,0,2.4,0,3.4,0h5.8V21H266.2z"/>
		<path class="st0" d="M306.3,21l-1.3-3.8h-6.2l-1.3,3.8h-3.6l6.4-16.8h3.3L310,21H306.3z M302.7,11c-0.3-1-0.7-2-0.8-2.6
			c-0.2,0.6-0.5,1.6-0.8,2.6l-1.1,3.1h3.8L302.7,11z"/>
	</g>
	<g>
		<path class="st0" d="M54.5,84.1h-5V67.3h5.3c4.8,0,8.4,2.3,8.4,8.4C63.1,81.6,58.9,84.1,54.5,84.1z M54.7,70.6h-1.8v10.3h1.7
			c3.5,0,5.1-2.1,5.1-5.1C59.7,72.3,58.2,70.6,54.7,70.6z"/>
		<path class="st0" d="M78.5,84.1V67.3h11.7v3.3h-8.3v2.9h4.8v3.3h-4.8v4.1h8.7v3.3H78.5z"/>
		<path class="st0" d="M135.8,84.1l-6.2-9.2c-0.4-0.6-1-1.5-1.2-1.9c0,0.6,0,2.7,0,3.7v7.4h-3.3V67.3h3.2l6,8.9
			c0.4,0.6,1,1.5,1.2,1.9c0-0.6,0-2.7,0-3.7v-7.1h3.3v16.8H135.8z"/>
		<path class="st0" d="M161.8,84.4c-4.1,0-6.8-2.7-6.8-7.6v-9.4h3.4v9.4c0,2.7,1.3,4.4,3.4,4.4c2.1,0,3.5-1.7,3.5-4.4v-9.4h3.4v9.4
			C168.6,81.6,166.1,84.4,161.8,84.4z"/>
		<path class="st0" d="M184.9,84.1V67.3h11.7v3.3h-8.3v2.9h4.8v3.3h-4.8v4.1h8.7v3.3H184.9z"/>
		<path class="st0" d="M217.9,84.4c-2.8,0-5.3-1.2-6.5-3.1l2.4-2.2c1.2,1.4,2.7,1.9,4.3,1.9c2,0,2.9-0.6,2.9-1.8
			c0-1.1-0.6-1.6-3.8-2.3c-3.1-0.7-5.3-1.7-5.3-5c0-3.1,2.7-4.9,6-4.9c2.6,0,4.5,1,6.1,2.6l-2.4,2.4c-1.1-1.1-2.3-1.7-3.8-1.7
			c-1.8,0-2.4,0.8-2.4,1.5c0,1.1,0.7,1.4,3.4,2c2.7,0.6,5.6,1.5,5.6,5.2C224.5,82.2,222.5,84.4,217.9,84.4z"/>
		<path class="st0" d="M246.5,70.6v13.5h-3.4V70.6h-4.8v-3.3h13v3.3H246.5z"/>
		<path class="st0" d="M276.4,84.1l-3-6.1H270v6.1h-3.4V67.3h7.8c3.2,0,5.8,1.8,5.8,5.3c0,2.5-1.1,4.1-3.2,5l3.2,6.5H276.4z
			 M274.4,70.6H270v4.3h4.4c1.6,0,2.4-0.7,2.4-2.2C276.8,71.2,275.9,70.6,274.4,70.6z"/>
		<path class="st0" d="M302.3,84.4c-4.4,0-7.4-3.2-7.4-8.7c0-5.4,3.1-8.7,7.5-8.7c4.4,0,7.4,3.2,7.4,8.7
			C309.7,81.1,306.7,84.4,302.3,84.4z M302.3,70.4c-2.4,0-3.9,1.9-3.9,5.3c0,3.4,1.6,5.4,4,5.4c2.4,0,3.9-1.9,3.9-5.3
			C306.2,72.3,304.6,70.4,302.3,70.4z"/>
	</g>
	<g>
		<path class="st0" d="M107,141.3h-3.7v6h-3.4v-16.8h7.4c3.2,0,5.8,1.8,5.8,5.3C113.1,139.6,110.5,141.3,107,141.3z M107.2,133.7
			h-3.9v4.3h3.9c1.6,0,2.4-0.7,2.4-2.2C109.6,134.3,108.6,133.7,107.2,133.7z"/>
		<path class="st0" d="M138,147.2l-3-6.1h-3.4v6.1h-3.4v-16.8h7.8c3.2,0,5.8,1.8,5.8,5.3c0,2.5-1.1,4.1-3.2,5l3.2,6.5H138z
			 M136.1,133.7h-4.4v4.3h4.4c1.6,0,2.4-0.7,2.4-2.2C138.5,134.3,137.5,133.7,136.1,133.7z"/>
		<path class="st0" d="M157.5,147.2v-16.8h11.7v3.3h-8.3v2.9h4.8v3.3h-4.8v4.1h8.7v3.3H157.5z"/>
		<path class="st0" d="M190.5,147.5c-2.8,0-5.3-1.2-6.5-3.1l2.4-2.2c1.2,1.4,2.7,1.9,4.3,1.9c2,0,2.9-0.6,2.9-1.8
			c0-1.1-0.6-1.6-3.8-2.3c-3.1-0.7-5.3-1.7-5.3-5c0-3.1,2.7-4.9,6-4.9c2.6,0,4.5,1,6.1,2.6l-2.4,2.4c-1.1-1.1-2.3-1.7-3.8-1.7
			c-1.8,0-2.4,0.8-2.4,1.5c0,1.1,0.7,1.4,3.4,2c2.7,0.6,5.6,1.5,5.6,5.2C197.1,145.3,195.1,147.5,190.5,147.5z"/>
		<path class="st0" d="M212.7,147.2v-16.8h11.7v3.3H216v2.9h4.8v3.3H216v4.1h8.7v3.3H212.7z"/>
		<path class="st0" d="M250.9,147.2l-6.2-9.2c-0.4-0.6-1-1.5-1.2-1.9c0,0.6,0,2.7,0,3.7v7.4h-3.3v-16.8h3.2l6,8.9
			c0.4,0.6,1,1.5,1.2,1.9c0-0.6,0-2.7,0-3.7v-7.1h3.3v16.8H250.9z"/>
		<path class="st0" d="M277.4,133.7v13.5H274v-13.5h-4.8v-3.3h13v3.3H277.4z"/>
		<path class="st0" d="M297.5,147.2v-16.8h11.7v3.3h-8.3v2.9h4.8v3.3h-4.8v4.1h8.7v3.3H297.5z"/>
	</g>
</g>
</svg>
