<?xml version="1.0" encoding="utf-8"?>
<!-- Generator: Adobe Illustrator 26.4.1, SVG Export Plug-In . SVG Version: 6.00 Build 0)  -->
<svg version="1.1" id="Capa_1" xmlns="http://www.w3.org/2000/svg" xmlns:xlink="http://www.w3.org/1999/xlink" x="0px" y="0px"
	 viewBox="0 0 260 59.4" style="enable-background:new 0 0 260 59.4;" xml:space="preserve">
<style type="text/css">
	.st0{fill:#FFFFFF;}
</style>
<path class="st0" d="M256,4.3h-0.7V0.4h0.7l1.2,1.8l1.2-1.8h0.7v3.9h-0.7V1.5l-1.2,1.8h0L256,1.5V4.3z M252.7,4.3h0.7V1.1h1.2V0.4
	h-3.2v0.6h1.2V4.3z M139.2,10.6l8.9,13.5l9-13.6V31h6.3V0.6h-7l-8.2,13.2L140,0.6h-7V31h6.2V10.6z M126.5,25.4h-16.7v-6.9h14.5v-5.6
	h-14.5V6.2h16.5V0.6h-22.8V31h23V25.4z M226.3,31h-7.4l-6.6-9.9h-5.6V31h-6.4V0.6h13.9c3.8,0,6.8,1.1,8.8,3.1
	c1.7,1.7,2.6,4.1,2.6,6.9v0.1c0,4.5-2.3,7.8-6.5,9.4l-0.3,0.1L226.3,31z M219.1,11L219.1,11c0-3-2-4.7-5.5-4.7h-6.9v9.3h7.1
	C217,15.6,219.1,13.9,219.1,11z M86.6,26c-3.4,0-6.5-1.1-9.3-3.4l-3.7,4.5c3.3,2.9,7.9,4.5,12.9,4.5c6.8,0,11.1-3.6,11.1-9.4V22
	c0-5.4-3.7-7.5-9.6-9c-5.4-1.4-6.8-2.1-6.8-4.3V8.7c0-1.5,1.3-3,4.2-3c2.7,0,5.4,0.9,8,2.6l3.3-4.6c-3-2.4-6.8-3.6-11.2-3.6
	c-6.2,0-10.6,3.8-10.6,9.2v0.1c0,6.2,4.2,7.7,10.1,9.2c5,1.3,6.4,2.2,6.4,4.1v0.1C91.3,24.7,89.4,26,86.6,26z M233.6,31h-6.5
	l13-30.6h6l13,30.6h-6.6l-2.8-6.9h-13.3L233.6,31z M238.6,18.6h8.8L243,7.8L238.6,18.6z M195,11.2c0,6.5-4.8,10.6-12.2,10.6h-5.4V31
	H171V0.6h12.4C190.4,0.6,195,4.7,195,11.2L195,11.2z M188.5,11.2c0-3.1-2.1-4.9-5.7-4.9h-5.4v9.8h5.6
	C186.3,16.2,188.5,14.2,188.5,11.2L188.5,11.2z M56.6,13.5c0-0.1,0.1-0.3,0-0.3c-0.1-0.1-0.2,0-0.3,0c-16.4,12.4-33-3.4-31.4,6.8
	c0.2,1.3,1.5,3.7,3.1,6c0,0,0.1,0.1,0,0.3c-0.1,0.1-0.2,0.1-0.2,0.1C19.2,31,13.5,37.8,10,43.3c-2.8-4.1-4.3-8.9-4.3-13.9
	c0-13.5,11-24.5,24.5-24.5c6.8,0,13.2,2.8,17.9,7.8l0.1,0.1l0.1,0c1.4-0.7,2.7-1.5,4-2.5l0.1-0.1l-0.1-0.1c-5.6-6.4-13.6-10-22-10
	C14,0.1,0.9,13.2,0.9,29.4c0,6.8,2.3,13.3,6.6,18.5C6.4,50,5.8,51.5,5.6,52c-0.7,1.8-0.1,2.4,0.2,2.5c0.5,0.2,1.3,0,2.1-1
	c5.5-7,20.2-24.1,27.5-19.1c4.1,2.8,4,5.9,0.9,8.8c-1.3,1.2-4.3,3.1-6.2,3.9c-2.8,1.3-4.4,1.6-4.1,2.6c0.2,0.9,1.4,0.9,6.2-0.3
	c5.5-1.4,17.4-5.5,12.5-15.5c-2.4-4.9-10.7-8.9-10.7-9c0.1-0.1,0.3-0.1,0.3-0.1c9.7-0.7,15.2-3.1,18.3-5.5c1.4,3.2,2.2,6.6,2.2,10.1
	c0,13.5-11,24.5-24.5,24.5c-4.9,0-9.6-1.5-13.7-4.2l-0.1-0.1l-0.1,0.1c-0.8,1.3-1.6,2.6-2.4,4l-0.1,0.1l0.1,0.1
	c4.8,3.2,10.4,4.9,16.2,4.9c16.2,0,29.3-13.1,29.3-29.3c0-4.9-1.3-9.7-3.6-14C56.3,14.4,56.5,13.7,56.6,13.5z M28,11.7
	c0,2,1.8,3.5,4,3.5c2.2,0,4-1.6,4-3.5s-1.8-3.5-4-3.5C29.8,8.2,28,9.8,28,11.7z M75.7,59h2.2V46.5h-2.2V59z M89.9,55.2l-6.6-8.7
	h-0.7h-1.3V59h2.1v-8.9l6.9,8.9H92l0.1-12.5h-2.2V55.2z M95.3,59h2.2l0-5.2h6.2v-2h-6.3v-3.4h7.1v-2h-9.3V59z M136.3,53.7h6.2v-2
	h-6.2v-3.3h7.1v-1.9h-9.3V59h9.4v-1.9h-7.2V53.7z M156.4,48.6h4V59h2.2V48.6h4v-2.1h-10.2V48.6z M207.6,48.6h4V59h2.2V48.6h4v-2.1
	h-10.2V48.6z M114.3,54.3l3.3,4.8H115l-3.1-4.4h-2.7l0,4.4H107V46.5h5.9c1,0,4.2,0.7,4.2,3.9C117.1,53.5,115,54,114.3,54.3z
	 M113,52.8c1.1,0,2-0.8,2-2.2c0-1.4-1.6-2-2.1-2h-3.7v4.2H113z M176,54.3l3.3,4.8h-2.6l-3.1-4.4h-2.7l0,4.4h-2.2V46.5h5.9
	c1,0,4.2,0.7,4.2,3.9C178.9,53.5,176.7,54,176,54.3z M174.7,52.8c1.1,0,2-0.8,2-2.2c0-1.4-1.6-2-2.1-2h-3.7v4.2H174.7z M240.8,54.3
	l3.3,4.8h-2.6l-3.1-4.4h-2.7l0,4.4h-2.2V46.5h5.9c1,0,4.2,0.7,4.2,3.9C243.7,53.5,241.6,54,240.8,54.3z M239.5,52.8
	c1.1,0,2-0.8,2-2.2c0-1.4-1.6-2-2.1-2h-3.7v4.2H239.5z M190.1,53.8c0,0.7-0.2,3.5-3.1,3.5c-2.9,0-3.2-2.6-3.2-3.4v-7.4h-2.2v7.7
	c0,0.9,0.5,5.1,5.4,5.1c4.9,0,5.4-4.2,5.4-5.1v-7.7h-2.2V53.8z M228.3,53.8c0,0.7-0.2,3.5-3.1,3.5c-2.9,0-3.2-2.6-3.2-3.4v-7.4h-2.2
	v7.7c0,0.9,0.5,5.1,5.4,5.1c4.9,0,5.4-4.2,5.4-5.1v-7.7h-2.2V53.8z M201.1,57.3c-2,0-4.2-2.1-4.2-4.5s1.9-4.6,4.1-4.6
	s3.6,1.6,3.6,1.6l1.4-1.6c0,0-1.7-2-5.1-2c-3.4,0-6.3,2.7-6.3,6.6c0,3.9,3.1,6.4,6.3,6.4c3.2,0,5.1-2.2,5.1-2.2l-1.4-1.5
	C204.7,55.7,203.1,57.3,201.1,57.3z M253.1,46.5l5.4,12.5h-2.3l-1.3-3h-5.9l-1.2,3h-2.3l5.6-12.5H253.1z M254.1,54l-2.2-4.9
	l-2.1,4.9L254.1,54z M126.4,46.5l5.4,12.5h-2.3l-1.3-3h-5.9l-1.2,3h-2.3l5.6-12.5H126.4z M127.5,54l-2.2-4.9l-2.1,4.9L127.5,54z
	 M151,51.8c-2.1-0.5-3.2-0.9-3.2-2.1c0-1.2,1.7-1.7,3-1.3c1.3,0.4,2.4,1.3,2.4,1.3l1.3-1.6c0,0-1.7-1.6-4.5-1.6
	c-2.8,0-4.3,1.8-4.3,3.5c0,1.7,0.6,3.2,4.3,4c2.6,0.6,2.8,1.3,2.7,2.1c-0.1,0.8-0.9,1.6-2.7,1.4c-1.8-0.2-3.5-1.6-3.5-1.6l-1.3,1.6
	c0,0,2.2,2.1,5.1,2s4.6-1.7,4.6-3.8C154.9,53.3,153.1,52.3,151,51.8z"/>
</svg>
