<?xml version="1.0" encoding="utf-8"?>
<!-- Generator: Adobe Illustrator 26.3.1, SVG Export Plug-In . SVG Version: 6.00 Build 0)  -->
<svg version="1.1" id="Capa_1" xmlns="http://www.w3.org/2000/svg" xmlns:xlink="http://www.w3.org/1999/xlink" x="0px" y="0px"
	 viewBox="0 0 260 59.4" style="enable-background:new 0 0 260 59.4;" xml:space="preserve">
<style type="text/css">
	.st0{fill:#FFFFFF;}
</style>
<g>
	<path id="TM" class="st0" d="M253.5,1.2h-1.2V0.5h3.2v0.6h-1.2v3.3h-0.7V1.2z M256.1,0.5h0.7l1.2,1.9l1.2-1.9h0.7v3.9h-0.7V1.6
		l-1.2,1.8h0l-1.2-1.8v2.8h-0.7V0.5z"/>
	<path id="Infrastructure" class="st0" d="M74.7,45.3h2.4v12.1V59h-2.4V45.3z M80.8,45.3h2.2l7.3,9.5v-9.5h2.4V59h-2l-7.6-9.7V59
		h-2.4V45.3z M96.4,45.3h10.2v2.2h-7.8v3.7h6.9v2.2h-6.9V59h-2.4V45.3z M109.2,45.3h6.1c1.7,0,3.1,0.5,4,1.4c0.7,0.7,1.1,1.8,1.1,3
		v0c0,2.3-1.3,3.6-3.3,4.1l3.7,5.2H118l-3.4-4.8h0h-3V59h-2.4V45.3z M115.2,52.1c1.7,0,2.8-0.9,2.8-2.3v0c0-1.5-1.1-2.3-2.8-2.3
		h-3.5v4.6H115.2z M128.3,45.2h2.2l6,13.8H134l-1.4-3.3h-6.5l-1.4,3.3h-2.5L128.3,45.2z M131.7,53.5l-2.4-5.5l-2.3,5.5H131.7z
		 M137.8,57l1.4-1.7c1.3,1.1,2.6,1.8,4.3,1.8c1.5,0,2.4-0.7,2.4-1.7v0c0-1-0.5-1.5-3.1-2.1c-2.9-0.7-4.6-1.6-4.6-4.1v0
		c0-2.3,2-4,4.7-4c2,0,3.6,0.6,5,1.7l-1.3,1.8c-1.2-0.9-2.5-1.4-3.7-1.4c-1.4,0-2.2,0.7-2.2,1.6v0c0,1.1,0.6,1.5,3.2,2.2
		c2.9,0.7,4.4,1.7,4.4,4v0c0,2.6-2,4.1-4.9,4.1C141.4,59.2,139.5,58.4,137.8,57z M154.4,47.5H150v-2.2h11.1v2.2h-4.3V59h-2.4V47.5z
		 M163.8,45.3h6.1c1.7,0,3.1,0.5,4,1.4c0.7,0.7,1.1,1.8,1.1,3v0c0,2.3-1.4,3.6-3.3,4.1l3.7,5.2h-2.8l-3.4-4.8h0h-3V59h-2.4V45.3z
		 M169.7,52.1c1.7,0,2.8-0.9,2.8-2.3v0c0-1.5-1.1-2.3-2.8-2.3h-3.5v4.6H169.7z M177.7,53.2v-7.9h2.4v7.8c0,2.5,1.3,3.9,3.5,3.9
		c2.1,0,3.4-1.3,3.4-3.8v-7.9h2.4V53c0,4.1-2.3,6.1-5.9,6.1C180,59.2,177.7,57.1,177.7,53.2z M192.2,52.2L192.2,52.2
		c0-3.9,2.9-7.1,7.1-7.1c2.5,0,4,0.9,5.4,2.1l-1.5,1.8c-1.1-1-2.3-1.7-3.8-1.7c-2.6,0-4.5,2.2-4.5,4.8v0c0,2.7,1.9,4.9,4.5,4.9
		c1.7,0,2.8-0.7,3.9-1.8l1.5,1.6c-1.4,1.5-3,2.4-5.6,2.4C195.2,59.2,192.2,56.1,192.2,52.2z M210.7,47.5h-4.3v-2.2h11.1v2.2h-4.3V59
		h-2.4V47.5z M219.8,53.2v-7.9h2.4v7.8c0,2.5,1.3,3.9,3.5,3.9c2.1,0,3.4-1.3,3.4-3.8v-7.9h2.4V53c0,4.1-2.3,6.1-5.9,6.1
		C222.1,59.2,219.8,57.1,219.8,53.2z M234.9,45.3h6.1c1.7,0,3.1,0.5,4,1.4c0.7,0.7,1.1,1.8,1.1,3v0c0,2.3-1.3,3.6-3.3,4.1l3.7,5.2
		h-2.8l-3.4-4.8h0h-3V59h-2.4V45.3z M240.8,52.1c1.7,0,2.8-0.9,2.8-2.3v0c0-1.5-1.1-2.3-2.8-2.3h-3.5v4.6H240.8z M249.1,45.3h10.2
		v2.2h-7.7V51h6.9v2.2h-6.9v3.7h7.8V59h-10.3V45.3z"/>
	<path id="Wordmark" class="st0" d="M171.3,31.3h6.4V22h5.4c7.5,0,12.3-4.2,12.3-10.7v-0.1c0-6.4-4.6-10.5-11.7-10.5h-12.5V31.3z
		 M183.3,16.4h-5.6V6.5h5.5c3.6,0,5.8,1.8,5.8,4.9v0.1C188.9,14.4,186.6,16.4,183.3,16.4z M219.5,31.3h7.5l-7.5-11l0.3-0.1
		c4.2-1.6,6.5-4.9,6.5-9.4v-0.1c0-2.8-0.9-5.2-2.6-6.9c-2-2-5.1-3.1-8.9-3.1h-14v30.6h6.4v-9.9h5.7L219.5,31.3z M214.3,15.8h-7.1
		V6.5h7c3.5,0,5.6,1.7,5.6,4.6v0.1C219.7,14.1,217.6,15.8,214.3,15.8z M253.3,31.3h6.7L246.9,0.5h-6l-13.1,30.8h6.5l2.8-7h13.4
		L253.3,31.3z M248.2,18.8h-8.9L243.8,8L248.2,18.8z M73.2,27.3c3.4,2.9,8,4.5,13,4.5c6.9,0,11.2-3.6,11.2-9.5v-0.1
		c0-5.5-3.7-7.5-9.7-9.1c-5.4-1.4-6.8-2.1-6.8-4.3V8.8c0-1.5,1.3-3,4.2-3c2.7,0,5.4,0.9,8,2.6l3.3-4.7c-3-2.4-6.8-3.6-11.2-3.6
		c-6.3,0-10.6,3.8-10.6,9.2v0.1c0,6.2,4.2,7.8,10.1,9.3c5,1.3,6.4,2.2,6.4,4.1V23c0,2-1.8,3.2-4.7,3.2c-3.4,0-6.5-1.1-9.4-3.4
		L73.2,27.3z M103.3,31.3h23.2v-5.6h-16.8v-6.9h14.6v-5.6h-14.6V6.4h16.6V0.7h-23V31.3z M157.3,31.3h6.4V0.7h-7l-8.3,13.3l-8.3-13.3
		h-7v30.6h6.3V10.7l8.9,13.6l9-13.7V31.3z"/>
	<path id="Symbol_2_" class="st0" d="M31.3,8.3c2.2,0,4.1,1.6,4.1,3.6c0,2-1.8,3.6-4.1,3.6c-2.2,0-4.1-1.6-4.1-3.6
		C27.3,9.9,29.1,8.3,31.3,8.3z M55.4,15.6c0.5-0.9,0.7-1.7,0.7-1.9c0-0.1,0.1-0.3,0-0.3c-0.1-0.1-0.2,0-0.3,0
		c-16.6,12.5-33.2-3.5-31.6,6.9c0.2,1.3,1.5,3.7,3.1,6.1c0,0,0.1,0.1,0,0.3c-0.1,0.1-0.2,0.1-0.2,0.1c-8.6,4.6-14.4,11.5-17.9,17
		c-2.8-4.1-4.4-8.9-4.4-14c0-13.6,11-24.6,24.6-24.6c6.9,0,13.3,2.8,18,7.8l0.1,0.1l0.1,0c1.4-0.7,2.7-1.5,4-2.5l0.1-0.1l-0.1-0.1
		C46.1,3.9,38,0.2,29.5,0.2C13.2,0.2,0,13.4,0,29.7C0,36.5,2.3,43,6.6,48.3c-1.1,2.1-1.7,3.7-1.9,4.1c-0.7,1.8-0.1,2.4,0.2,2.5
		c0.5,0.2,1.3,0,2.1-1c5.5-7,20.4-24.2,27.7-19.3c4.2,2.8,4,6,0.9,8.9c-1.3,1.2-4.4,3.1-6.2,4c-2.9,1.4-4.4,1.6-4.2,2.6
		c0.2,0.9,1.4,0.9,6.2-0.3c5.5-1.4,17.6-5.6,12.5-15.6c-2.5-4.9-10.8-8.9-10.8-9c0.1-0.1,0.3-0.1,0.3-0.1c9.7-0.7,15.3-3.1,18.4-5.5
		c1.4,3.2,2.2,6.6,2.2,10.2c0,13.6-11.1,24.6-24.6,24.6c-4.9,0-9.7-1.5-13.8-4.2L15.6,50l-0.1,0.1c-0.8,1.3-1.6,2.7-2.4,4l-0.1,0.1
		l0.1,0.1c4.9,3.2,10.5,5,16.3,5C45.8,59.2,59,46,59,29.7C59,24.8,57.7,19.9,55.4,15.6z"/>
</g>
</svg>
