<?xml version="1.0" encoding="utf-8"?>
<!-- Generator: Adobe Illustrator 26.3.1, SVG Export Plug-In . SVG Version: 6.00 Build 0)  -->
<svg version="1.1" id="Capa_1" xmlns="http://www.w3.org/2000/svg" xmlns:xlink="http://www.w3.org/1999/xlink" x="0px" y="0px"
	 viewBox="0 0 262.7 143.3" style="enable-background:new 0 0 262.7 143.3;" xml:space="preserve">
<style type="text/css">
	.st0{enable-background:new    ;}
	.st1{fill:#FFFFFF;}
</style>
<g class="st0">
	<path class="st1" d="M12.3,16.9h-12V0.1H12v3.3H3.6v2.9h4.8v3.3H3.6v4.1h8.7V16.9z"/>
	<path class="st1" d="M41.5,16.9h-3l-6.2-9.2c-0.4-0.6-1-1.5-1.2-1.9c0,0.6,0,2.7,0,3.7v7.4h-3.3V0.1h3.2l6,8.9
		c0.4,0.6,1,1.5,1.2,1.9c0-0.6,0-2.7,0-3.7V0.1h3.3V16.9z"/>
	<path class="st1" d="M69.8,16.9h-12V0.1h11.7v3.3h-8.3v2.9H66v3.3h-4.8v4.1h8.7V16.9z"/>
	<path class="st1" d="M99,16.9h-3.9l-3-6h-3.4v6h-3.4V0.1h7.8c3.2,0,5.8,1.8,5.8,5.3c0,2.5-1.1,4.1-3.2,4.9L99,16.9z M95.6,5.5
		c0-1.5-0.9-2.1-2.4-2.1h-4.4v4.3h4.4C94.7,7.7,95.6,6.9,95.6,5.5z"/>
	<path class="st1" d="M127.7,10.4c0,4.3-2.9,6.8-6.7,6.8c-4.4,0-7.3-3.4-7.3-8.7c0-5.1,3.1-8.7,7.5-8.7c3.4,0,5.3,1.6,6.4,4.2
		l-3.2,1.3c-0.6-1.2-1.4-2.2-3.2-2.2c-2.5,0-4,2.2-4,5.3c0,3.1,1.5,5.4,4,5.4c2.3,0,3.1-1.1,3.3-2.5h-2.7V8.2h6V10.4z"/>
	<path class="st1" d="M146.9,16.9h-3.4V0.1h3.4V16.9z"/>
	<path class="st1" d="M176.2,16.9h-13.2v-3l7.2-8.6c0.5-0.6,1.5-1.8,1.9-2.2c-0.7,0-2.4,0-3.4,0h-5.3V0.1h12.6v3l-7.2,8.6
		c-0.5,0.6-1.5,1.8-1.9,2.2c0.7,0,2.4,0,3.4,0h5.8V16.9z"/>
	<path class="st1" d="M204,16.9h-12V0.1h11.7v3.3h-8.3v2.9h4.8v3.3h-4.8v4.1h8.7V16.9z"/>
	<path class="st1" d="M231.5,11.8c0,3.2-2,5.4-6.6,5.4c-2.8,0-5.3-1.2-6.5-3l2.4-2.2c1.2,1.4,2.7,1.9,4.3,1.9c2,0,2.9-0.6,2.9-1.8
		c0-1.1-0.6-1.6-3.7-2.3c-3.1-0.7-5.3-1.7-5.3-5c0-3,2.7-4.9,6-4.9c2.6,0,4.5,1,6.1,2.6l-2.4,2.4c-1.1-1.1-2.3-1.7-3.8-1.7
		c-1.8,0-2.4,0.8-2.4,1.5c0,1.1,0.7,1.4,3.4,2S231.5,8.1,231.5,11.8z"/>
</g>
<g class="st0">
	<path class="st1" d="M14.2,71.5c0,5.4-3,8.7-7.4,8.7c-4.4,0-7.4-3.2-7.4-8.6c0-5.4,3-8.7,7.4-8.7C11.2,62.8,14.2,66,14.2,71.5z
		 M10.7,71.5c0-3.4-1.6-5.4-4-5.4c-2.4,0-3.9,1.9-3.9,5.3s1.6,5.4,4,5.4C9.1,76.8,10.7,74.9,10.7,71.5z"/>
	<path class="st1" d="M43,72.5c0,4.9-2.5,7.7-6.8,7.7c-4.1,0-6.8-2.7-6.8-7.6v-9.4h3.4v9.4c0,2.7,1.3,4.4,3.4,4.4
		c2.1,0,3.5-1.7,3.5-4.3v-9.4H43V72.5z"/>
	<path class="st1" d="M72.8,79.9H69l-3-6h-3.4v6h-3.4V63.1h7.8c3.2,0,5.8,1.8,5.8,5.3c0,2.5-1.1,4.1-3.2,4.9L72.8,79.9z M69.4,68.5
		c0-1.5-0.9-2.1-2.4-2.1h-4.4v4.3H67C68.5,70.7,69.4,69.9,69.4,68.5z"/>
</g>
<g class="st0">
	<path class="st1" d="M12.3,129.4H3.6v3.2h5.1v3.3H3.6v7.1H0.3v-16.8h12V129.4z"/>
	<path class="st1" d="M40.8,135.5c0,4.9-2.5,7.7-6.8,7.7c-4.1,0-6.8-2.7-6.8-7.6v-9.4h3.4v9.4c0,2.7,1.3,4.4,3.4,4.4
		c2.1,0,3.5-1.7,3.5-4.3v-9.4h3.4V135.5z"/>
	<path class="st1" d="M68.9,129.4h-4.8v13.5h-3.4v-13.5h-4.8v-3.3h13V129.4z"/>
	<path class="st1" d="M97.6,135.5c0,4.9-2.5,7.7-6.8,7.7c-4.1,0-6.8-2.7-6.8-7.6v-9.4h3.4v9.4c0,2.7,1.3,4.4,3.4,4.4
		c2.1,0,3.5-1.7,3.5-4.3v-9.4h3.4V135.5z"/>
	<path class="st1" d="M127.4,142.9h-3.9l-3-6h-3.4v6h-3.4v-16.8h7.8c3.2,0,5.8,1.8,5.8,5.3c0,2.5-1.1,4.1-3.2,4.9L127.4,142.9z
		 M124,131.5c0-1.5-0.9-2.1-2.4-2.1h-4.4v4.3h4.4C123.1,133.7,124,132.9,124,131.5z"/>
	<path class="st1" d="M155,142.9h-12v-16.8h11.7v3.3h-8.3v2.9h4.8v3.3h-4.8v4.1h8.7V142.9z"/>
</g>
</svg>
