<?xml version="1.0" encoding="utf-8"?>
<!-- Generator: Adobe Illustrator 26.1.0, SVG Export Plug-In . SVG Version: 6.00 Build 0)  -->
<svg version="1.1" id="Capa_1" xmlns="http://www.w3.org/2000/svg" xmlns:xlink="http://www.w3.org/1999/xlink" x="0px" y="0px"
	 viewBox="0 0 315.7 264.1" style="enable-background:new 0 0 315.7 264.1;" xml:space="preserve">
<style type="text/css">
	.st0{fill:#FFFFFF;}
</style>
<g id="the_strength_of_our_present">
	<g>
		<path class="st0" d="M13,3.6H8.2v13.5H4.8V3.6H0V0.3h13V3.6z"/>
		<path class="st0" d="M41.9,17.1h-3.4V10h-6.9v7.1h-3.4V0.3h3.4v6.4h6.9V0.3h3.4V17.1z"/>
		<path class="st0" d="M70.2,17.1h-12V0.3h11.7v3.3h-8.3v2.9h4.8v3.3h-4.8v4.1h8.7L70.2,17.1L70.2,17.1z"/>
		<path class="st0" d="M117.1,12c0,3.2-2,5.4-6.6,5.4c-2.8,0-5.3-1.2-6.5-3.1l2.4-2.2c1.2,1.4,2.7,1.9,4.3,1.9c2,0,2.9-0.6,2.9-1.8
			c0-1.1-0.6-1.6-3.7-2.3c-3.1-0.7-5.3-1.7-5.3-5c0-3,2.7-4.9,6-4.9c2.6,0,4.5,1,6.1,2.6L114.3,5c-1.1-1.1-2.3-1.7-3.8-1.7
			c-1.8,0-2.4,0.8-2.4,1.5c0,1.1,0.7,1.4,3.4,2C114.1,7.4,117.1,8.3,117.1,12L117.1,12z"/>
		<path class="st0" d="M143.9,3.6h-4.8v13.5h-3.4V3.6h-4.8V0.3h13L143.9,3.6L143.9,3.6z"/>
		<path class="st0" d="M172.8,17.1h-3.9l-3-6.1h-3.4v6.1h-3.4V0.3h7.8c3.2,0,5.8,1.8,5.8,5.3c0,2.5-1.1,4.1-3.2,4.9L172.8,17.1
			L172.8,17.1z M169.3,5.7c0-1.5-0.9-2.1-2.4-2.1h-4.4v4.3h4.4C168.4,7.8,169.3,7.1,169.3,5.7z"/>
		<path class="st0" d="M200.3,17.1h-12V0.3h11.7v3.3h-8.3v2.9h4.8v3.3h-4.8v4.1h8.7L200.3,17.1L200.3,17.1z"/>
		<path class="st0" d="M229.5,17.1h-3l-6.2-9.2c-0.4-0.6-1-1.5-1.2-1.9c0,0.6,0.1,2.7,0.1,3.7v7.4h-3.3V0.3h3.2l5.9,8.9
			c0.4,0.6,1,1.5,1.2,1.9c0-0.6-0.1-2.7-0.1-3.7V0.3h3.3V17.1z"/>
		<path class="st0" d="M259,10.6c0,4.3-2.9,6.8-6.7,6.8c-4.4,0-7.3-3.4-7.3-8.7S248,0,252.4,0c3.4,0,5.3,1.6,6.4,4.2l-3.2,1.3
			c-0.6-1.2-1.4-2.2-3.2-2.2c-2.5,0-4,2.2-4,5.3s1.5,5.4,4,5.4c2.3,0,3.1-1.1,3.3-2.5H253V8.4h6L259,10.6L259,10.6z"/>
		<path class="st0" d="M285.7,3.6h-4.8v13.5h-3.4V3.6h-4.8V0.3h13L285.7,3.6L285.7,3.6z"/>
		<path class="st0" d="M314.6,17.1h-3.4V10h-6.9v7.1H301V0.3h3.4v6.4h6.9V0.3h3.4V17.1z"/>
	</g>
	<g>
		<path class="st0" d="M181.5,71.6c0,5.4-3.1,8.7-7.4,8.7s-7.4-3.2-7.4-8.6s3.1-8.7,7.4-8.7S181.5,66.2,181.5,71.6z M178,71.7
			c0-3.4-1.6-5.3-4-5.3s-3.9,1.9-3.9,5.3s1.6,5.3,4,5.3S178,75.1,178,71.7z"/>
		<path class="st0" d="M208.9,66.6h-8.7v3.2h5.1V73h-5.1v7.1h-3.4V63.3h12V66.6z"/>
		<path class="st0" d="M256.7,71.6c0,5.4-3.1,8.7-7.4,8.7s-7.4-3.2-7.4-8.6s3.1-8.7,7.4-8.7S256.7,66.2,256.7,71.6z M253.2,71.7
			c0-3.4-1.6-5.3-4-5.3s-3.9,1.9-3.9,5.3s1.6,5.3,4,5.3S253.2,75.1,253.2,71.7z"/>
		<path class="st0" d="M285.6,72.7c0,4.9-2.5,7.7-6.8,7.7s-6.8-2.7-6.8-7.6v-9.4h3.4v9.4c0,2.7,1.3,4.4,3.4,4.4s3.5-1.7,3.5-4.3
			v-9.4h3.4L285.6,72.7L285.6,72.7z"/>
		<path class="st0" d="M315.4,80.1h-3.9l-3-6.1h-3.4v6.1h-3.4V63.3h7.8c3.2,0,5.8,1.8,5.8,5.3c0,2.5-1.1,4.1-3.2,4.9L315.4,80.1
			L315.4,80.1z M311.9,68.7c0-1.5-0.9-2.1-2.4-2.1h-4.4v4.3h4.4C311.1,70.8,311.9,70.1,311.9,68.7z"/>
	</g>
	<g>
		<path class="st0" d="M146.8,131.6c0,3.9-2.6,5.5-6.1,5.5H137v5.9h-3.4v-16.8h7.3C144.2,126.3,146.8,128,146.8,131.6L146.8,131.6z
			 M143.3,131.7c0-1.5-1-2.1-2.4-2.1H137v4.3h3.9C142.5,133.8,143.3,133.1,143.3,131.7L143.3,131.7z"/>
		<path class="st0" d="M175.6,143.1h-3.9l-3-6.1h-3.4v6.1H162v-16.8h7.8c3.2,0,5.8,1.8,5.8,5.3c0,2.5-1.1,4.1-3.2,4.9L175.6,143.1z
			 M172.1,131.7c0-1.5-0.9-2.1-2.4-2.1h-4.4v4.3h4.4C171.3,133.9,172.1,133.1,172.1,131.7L172.1,131.7z"/>
		<path class="st0" d="M203.1,143.1h-12v-16.8h11.7v3.3h-8.3v2.9h4.8v3.3h-4.8v4.1h8.7L203.1,143.1L203.1,143.1z"/>
		<path class="st0" d="M230.7,138c0,3.2-2,5.4-6.6,5.4c-2.8,0-5.3-1.2-6.5-3.1l2.4-2.2c1.2,1.4,2.7,1.9,4.3,1.9c2,0,2.9-0.6,2.9-1.8
			c0-1.1-0.6-1.6-3.7-2.3c-3.1-0.7-5.3-1.7-5.3-5c0-3.1,2.7-4.9,6-4.9c2.6,0,4.5,1,6.1,2.6l-2.4,2.4c-1.1-1.1-2.3-1.7-3.8-1.7
			c-1.8,0-2.4,0.8-2.4,1.5c0,1.1,0.7,1.4,3.4,2C227.7,133.4,230.7,134.3,230.7,138L230.7,138z"/>
		<path class="st0" d="M258.2,143.1h-12v-16.8h11.7v3.3h-8.3v2.9h4.8v3.3h-4.8v4.1h8.7L258.2,143.1L258.2,143.1z"/>
		<path class="st0" d="M287.4,143.1h-3l-6.2-9.2c-0.4-0.6-1-1.5-1.2-1.9c0,0.6,0,2.7,0,3.7v7.4h-3.3v-16.8h3.2l6,8.9
			c0.4,0.6,1,1.5,1.2,1.9c0-0.6,0-2.7,0-3.7v-7.1h3.3V143.1z"/>
		<path class="st0" d="M315.7,129.6h-4.8v13.5h-3.4v-13.5h-4.8v-3.3h13L315.7,129.6L315.7,129.6z"/>
	</g>
</g>
<g id="Grupo_2228" transform="translate(60.468 -1.207)">
	<path id="Trazado_2234" class="st0" d="M73.8,261.8H13.7c0.4-26.3,16.6-37.7,35.3-46c6.6-2.9,8.7-5.9,8.7-9.2
		c0-3.9-3.4-7.8-12.6-7.8s-16.5,4.1-21.8,9.2l-9.9-11.5c8.2-8.3,19.5-12.9,31.2-12.7c18.2,0,28.5,7.4,28.5,22.1
		c0,12.4-6.7,17.8-19.7,23.8C39.7,235.9,34.4,241,33,246.9h40.8V261.8L73.8,261.8z"/>
</g>
<g id="Grupo_2229" transform="translate(133.883 -39.836)">
	<path id="Trazado_2235" class="st0" d="M73,261.8c0,23.4-11.4,39.8-32.4,39.8S8.5,285.4,8.5,262c0-23.4,11.3-39.6,32.3-39.6
		S73,238.4,73,261.8 M57.5,262c0-13.7-5.1-24.6-16.8-24.6S24.1,248,24.1,261.8c0,13.7,4.9,24.8,16.7,24.8S57.5,275.7,57.5,262"/>
</g>
<g id="Grupo_2230" transform="translate(201.92 -1.207)">
	<path id="Trazado_2236" class="st0" d="M71.6,261.8H11.5c0.4-26.3,16.6-37.7,35.3-46c6.6-2.9,8.7-5.9,8.7-9.2
		c0-3.9-3.4-7.8-12.6-7.8S26.4,202.8,21,208l-9.9-11.5c8.2-8.3,19.5-12.9,31.2-12.7c18.2,0,28.5,7.4,28.5,22.1
		c0,12.4-6.7,17.8-19.8,23.8c-13.6,6.2-18.9,11.4-20.3,17.3h40.8V261.8L71.6,261.8z"/>
</g>
<g id="Grupo_2231" transform="translate(222.77 -3.74)">
	<path id="Trazado_2237" class="st0" d="M76,260.6l15.2-26.4v-47.9H78.5c-1.5,6.4-7.1,9.6-15.7,10v11.3H76V260.6L76,260.6z"/>
</g>
</svg>
