<?xml version="1.0" encoding="UTF-8"?>
<svg id="Capa_1" data-name="Capa 1" xmlns="http://www.w3.org/2000/svg" viewBox="0 0 262.68 143.33">
  <defs>
    <style>
      .cls-1 {
        fill: #fff;
      }

      .cls-2 {
        isolation: isolate;
      }
    </style>
  </defs>
  <g id="is_the_energy_of_our_future" data-name="is the energy of our future" class="cls-2">
    <g class="cls-2">
      <path class="cls-1" d="M4.54,17.07H1.18V.26h3.36V17.07Z"/>
      <path class="cls-1" d="M33.41,11.98c0,3.19-2.02,5.35-6.6,5.35-2.81,0-5.26-1.18-6.53-3.05l2.42-2.16c1.18,1.37,2.69,1.92,4.3,1.92,1.99,0,2.93-.55,2.93-1.82,0-1.08-.58-1.56-3.74-2.28-3.1-.72-5.26-1.7-5.26-5.02,0-3.05,2.69-4.92,6-4.92,2.62,0,4.54,.98,6.12,2.64l-2.42,2.35c-1.08-1.1-2.28-1.73-3.82-1.73-1.8,0-2.4,.77-2.4,1.51,0,1.06,.72,1.39,3.38,2.02,2.66,.62,5.62,1.54,5.62,5.18Z"/>
      <path class="cls-1" d="M79.85,3.58h-4.82v13.49h-3.36V3.58h-4.82V.26h13.01V3.58Z"/>
      <path class="cls-1" d="M108.7,17.07h-3.36v-7.06h-6.89v7.06h-3.36V.26h3.36V6.7h6.89V.26h3.36V17.07Z"/>
      <path class="cls-1" d="M137.04,17.07h-12.02V.26h11.67V3.55h-8.3v2.9h4.82v3.26h-4.82v4.06h8.66v3.29Z"/>
    </g>
    <g class="cls-2">
      <path class="cls-1" d="M12.96,80.07H.94v-16.8H12.6v3.29H4.3v2.9h4.82v3.26H4.3v4.06H12.96v3.29Z"/>
      <path class="cls-1" d="M42.15,80.07h-3l-6.17-9.17c-.41-.62-.96-1.46-1.18-1.9,0,.62,.05,2.74,.05,3.67v7.39h-3.31v-16.8h3.22l5.95,8.88c.41,.62,.96,1.46,1.18,1.9,0-.62-.05-2.74-.05-3.67v-7.1h3.31v16.8Z"/>
      <path class="cls-1" d="M70.49,80.07h-12.02v-16.8h11.67v3.29h-8.3v2.9h4.82v3.26h-4.82v4.06h8.66v3.29Z"/>
      <path class="cls-1" d="M99.67,80.07h-3.86l-3-6.05h-3.38v6.05h-3.36v-16.8h7.82c3.17,0,5.78,1.75,5.78,5.33,0,2.52-1.08,4.1-3.22,4.94l3.22,6.53Zm-3.46-11.4c0-1.51-.91-2.14-2.4-2.14h-4.39v4.32h4.39c1.56,0,2.4-.72,2.4-2.18Z"/>
      <path class="cls-1" d="M128.4,73.56c0,4.32-2.86,6.77-6.74,6.77-4.39,0-7.34-3.36-7.34-8.66s3.07-8.67,7.46-8.67c3.43,0,5.26,1.61,6.36,4.2l-3.19,1.32c-.62-1.25-1.39-2.18-3.22-2.18-2.52,0-3.96,2.21-3.96,5.33s1.46,5.38,3.98,5.38c2.3,0,3.1-1.08,3.29-2.54h-2.66v-3.14h6.02v2.21Z"/>
      <path class="cls-1" d="M157.44,63.26l-6.36,10.15v6.65h-3.36v-6.58l-6.36-10.23h3.86l2.38,3.98c.6,1.01,1.51,2.66,1.82,3.29,.31-.62,1.2-2.23,1.82-3.29l2.38-3.98h3.82Z"/>
      <path class="cls-1" d="M204.96,71.64c0,5.42-3.05,8.69-7.42,8.69s-7.39-3.22-7.39-8.64,3.05-8.69,7.44-8.69,7.37,3.22,7.37,8.64Zm-3.46,.05c0-3.41-1.63-5.35-3.98-5.35s-3.91,1.9-3.91,5.3,1.63,5.35,3.98,5.35,3.91-1.9,3.91-5.3Z"/>
      <path class="cls-1" d="M232.37,66.55h-8.66v3.17h5.06v3.26h-5.06v7.08h-3.36v-16.8h12.02v3.29Z"/>
    </g>
    <g class="cls-2">
      <path class="cls-1" d="M14.81,134.64c0,5.42-3.05,8.69-7.42,8.69s-7.39-3.22-7.39-8.64,3.05-8.69,7.44-8.69,7.37,3.22,7.37,8.64Zm-3.46,.05c0-3.41-1.63-5.35-3.98-5.35s-3.91,1.9-3.91,5.3,1.63,5.35,3.98,5.35,3.91-1.9,3.91-5.3Z"/>
      <path class="cls-1" d="M43.68,135.65c0,4.87-2.54,7.68-6.82,7.68s-6.79-2.74-6.79-7.63v-9.43h3.36v9.38c0,2.69,1.3,4.39,3.43,4.39s3.46-1.66,3.46-4.34v-9.43h3.36v9.38Z"/>
      <path class="cls-1" d="M73.49,143.07h-3.86l-3-6.05h-3.38v6.05h-3.36v-16.8h7.82c3.17,0,5.78,1.75,5.78,5.33,0,2.52-1.08,4.1-3.22,4.94l3.22,6.53Zm-3.46-11.4c0-1.51-.91-2.14-2.4-2.14h-4.39v4.32h4.39c1.56,0,2.4-.72,2.4-2.18Z"/>
      <path class="cls-1" d="M120,129.55h-8.66v3.17h5.06v3.26h-5.06v7.08h-3.36v-16.8h12.02v3.29Z"/>
      <path class="cls-1" d="M148.46,135.65c0,4.87-2.54,7.68-6.82,7.68s-6.79-2.74-6.79-7.63v-9.43h3.36v9.38c0,2.69,1.3,4.39,3.43,4.39s3.46-1.66,3.46-4.34v-9.43h3.36v9.38Z"/>
      <path class="cls-1" d="M176.59,129.58h-4.82v13.49h-3.36v-13.49h-4.82v-3.31h13.01v3.31Z"/>
      <path class="cls-1" d="M205.32,135.65c0,4.87-2.54,7.68-6.82,7.68s-6.79-2.74-6.79-7.63v-9.43h3.36v9.38c0,2.69,1.3,4.39,3.43,4.39s3.46-1.66,3.46-4.34v-9.43h3.36v9.38Z"/>
      <path class="cls-1" d="M235.13,143.07h-3.86l-3-6.05h-3.38v6.05h-3.36v-16.8h7.82c3.17,0,5.78,1.75,5.78,5.33,0,2.52-1.08,4.1-3.22,4.94l3.22,6.53Zm-3.46-11.4c0-1.51-.91-2.14-2.4-2.14h-4.39v4.32h4.39c1.56,0,2.4-.72,2.4-2.18Z"/>
      <path class="cls-1" d="M262.68,143.07h-12.02v-16.8h11.67v3.29h-8.3v2.9h4.82v3.26h-4.82v4.06h8.66v3.29Z"/>
    </g>
  </g>
</svg>