<?xml version="1.0" encoding="UTF-8"?>
<svg id="Capa_1" data-name="Capa 1" xmlns="http://www.w3.org/2000/svg" viewBox="0 0 340.02 79.02">
  <defs>
    <style>
      .cls-1 {
        fill: #fff;
      }
    </style>
  </defs>
  <g id="Grupo_2030" data-name="Grupo 2030">
    <path id="Trazado_1778" data-name="Trazado 1778" class="cls-1" d="M49.02,32.77c0,21.27-15.39,30.26-30.95,30.26H0V2.51H18.93c17.29,0,30.09,8.13,30.09,30.26m-12.45,0c0-12.36-5.27-18.5-18.07-18.5h-6.4V51.27h5.97c12.71,0,18.5-7.44,18.5-18.5"/>
    <path id="Trazado_1779" data-name="Trazado 1779" class="cls-1" d="M68.81,7.08c0,3.77-3.06,6.83-6.83,6.83s-6.83-3.06-6.83-6.83S58.21,.25,61.98,.25s6.83,3.06,6.83,6.83m-.87,55.94h-11.93V17.64h11.93V63.02Z"/>
    <path id="Trazado_1780" data-name="Trazado 1780" class="cls-1" d="M117.75,17.64l-16.34,45.39h-12.28l-16.34-45.39h13.14l6.66,21.01c1.12,3.46,2.33,7.78,2.85,9.94,.52-2.25,1.73-6.4,2.85-9.94l6.66-21.01h12.79Z"/>
    <path id="Trazado_1781" data-name="Trazado 1781" class="cls-1" d="M159.16,40.37c0,1.27-.05,2.54-.17,3.8h-27.15c.43,6.22,5.02,8.56,9.34,8.56,2.93,.11,5.77-1.06,7.78-3.2l8.47,7.09c-3.63,4.67-10.2,7.35-16.25,7.35-13.05,0-21.36-9.25-21.36-23.6s8.73-23.69,20.23-23.69c12.1,0,19.11,10.72,19.11,23.69m-11.58-5.19c-.35-4.06-2.77-8.13-8.13-8.13-4.32,0-7,3.55-7.43,8.13h15.56Z"/>
    <path id="Trazado_1782" data-name="Trazado 1782" class="cls-1" d="M194.78,19.88l-3.11,11.67c-1.85-1.82-4.32-2.87-6.92-2.94-4.67,0-7.69,1.99-7.69,9.86v24.55h-11.93V17.64h11.93v3.02c2.41-2.58,5.8-4.02,9.34-3.98,3.11-.1,6.13,1.05,8.39,3.2"/>
    <path id="Trazado_1783" data-name="Trazado 1783" class="cls-1" d="M234.46,49.8c0,10.46-8.3,14.18-18.5,14.18-6.71,.07-13.3-1.76-19.02-5.27l3.98-9.08c4.79,2.73,10.22,4.16,15.73,4.15,4.67,0,6.05-1.12,6.05-3.46,0-2.07-1.64-3.11-6.66-4.58-10.89-3.29-17.9-5.97-17.9-15.56s7.52-13.49,18.16-13.49c5.87,.09,11.62,1.6,16.77,4.41l-3.8,9.42c-4.06-2.24-8.59-3.48-13.23-3.63-4.84,0-6.14,.95-6.14,2.94s1.38,2.68,9.42,5.27c8.13,2.68,15.13,5.62,15.13,14.7"/>
    <path id="Trazado_1784" data-name="Trazado 1784" class="cls-1" d="M254.69,7.08c0,3.77-3.07,6.82-6.84,6.82-3.76,0-6.81-3.05-6.82-6.82,0-3.77,3.07-6.82,6.84-6.82,3.76,0,6.81,3.05,6.82,6.82m-.86,55.94h-11.93V17.64h11.93V63.02Z"/>
    <path id="Trazado_1785" data-name="Trazado 1785" class="cls-1" d="M289.36,49.11l-1.73,12.1c-2.72,1.86-5.95,2.83-9.25,2.77-7.35,0-12.1-5.71-12.1-13.66V28.88h-7.61v-11.24h7.61V5.97l11.93-5.97V17.64h10.89v11.24h-10.89v18.24c0,4.32,1.56,5.45,4.41,5.45,2.16,0,3.8-.95,6.74-3.46"/>
    <path id="Trazado_1786" data-name="Trazado 1786" class="cls-1" d="M304.91,79.02h3.9l23.03-39.88,8.18-21.5h-12.8l-7.43,21.87c-1.21,3.54-2.42,7.69-2.94,9.94-.52-2.16-1.73-6.48-2.94-9.94l-7.44-21.87h-13.14l17.64,45.39-6.05,15.99Z"/>
  </g>
</svg>