<?xml version="1.0" encoding="utf-8"?>
<!-- Generator: Adobe Illustrator 26.1.0, SVG Export Plug-In . SVG Version: 6.00 Build 0)  -->
<svg version="1.1" id="a" xmlns="http://www.w3.org/2000/svg" xmlns:xlink="http://www.w3.org/1999/xlink" x="0px" y="0px"
	 viewBox="0 0 203.1 61.6" style="enable-background:new 0 0 203.1 61.6;" xml:space="preserve">
<style type="text/css">
	.st0{fill:#FFFFFF;}
</style>
<g id="Grupo_1656" transform="translate(0 0)">
	<g id="Grupo_1651" transform="translate(0 4.596)">
		<path id="Trazado_1673" class="st0" d="M49.9,31.2c0,16.2-8.4,25.5-22.6,25.5c-13.5,0-22.5-9.1-22.5-25.3V0.1h11.2v31.1
			c0,8.9,4.3,14.6,11.4,14.6s11.5-5.5,11.5-14.4V0.1h11.2L49.9,31.2z"/>
	</g>
	<g id="Grupo_1652" transform="translate(56.654 18.301)">
		<path id="Trazado_1674" class="st0" d="M38.3,42.1h-11V19.5c0-7.5-2.5-9.7-7.1-9.7s-7.2,2.2-7.2,9.5v22.9h-11V0.3h11v2.8
			c2.7-2.5,6.2-3.8,9.8-3.7c10.7,0,15.5,7.3,15.5,19.1L38.3,42.1z"/>
	</g>
	<g id="Grupo_1653" transform="translate(101.61 2.424)">
		<path id="Trazado_1675" class="st0" d="M12.6,6.5c0,3.5-2.8,6.3-6.3,6.3C2.8,12.7,0,9.9,0,6.5C0,3,2.8,0.2,6.3,0.2
			C9.8,0.2,12.5,3,12.6,6.5 M11.8,58h-11V16.2h11L11.8,58z"/>
	</g>
	<g id="Grupo_1654" transform="translate(119.91 0)">
		<path id="Trazado_1676" class="st0" d="M37,39.6c0,12.8-8,21.7-19,21.7S-0.9,52.4-0.9,39.6s8-21.8,18.9-21.8S37,26.7,37,39.6
			 M25.8,39.6c0-6.4-2.5-11.2-7.8-11.2s-7.7,4.8-7.7,11.2s2.5,11.2,7.7,11.2S25.8,45.4,25.8,39.6"/>
	</g>
	<g id="Grupo_1655" transform="translate(165.116 18.301)">
		<path id="Trazado_1677" class="st0" d="M8,19.3c0-7.2,2.6-9.5,7.2-9.5s7.1,2.2,7.1,9.7v17.2l11-19C33,6.4,28.2-0.6,17.8-0.6
			C14.2-0.7,10.7,0.6,8,3.1V0.3H-3v41.8H8V19.3z"/>
	</g>
</g>
</svg>
