<?xml version="1.0" encoding="utf-8"?>
<!-- Generator: Adobe Illustrator 26.3.1, SVG Export Plug-In . SVG Version: 6.00 Build 0)  -->
<svg version="1.1" id="Capa_1" xmlns="http://www.w3.org/2000/svg" xmlns:xlink="http://www.w3.org/1999/xlink" x="0px" y="0px"
	 viewBox="0 0 315.7 264.1" style="enable-background:new 0 0 315.7 264.1;" xml:space="preserve">
<style type="text/css">
	.st0{fill:#FFFFFF;}
	.st1{enable-background:new    ;}
</style>
<g id="Grupo_2228" transform="translate(60.468 -1.207)">
	<path id="Trazado_2234" class="st0" d="M73.8,261.8H13.7c0.4-26.3,16.6-37.7,35.3-46c6.6-2.9,8.7-5.9,8.7-9.2
		c0-3.9-3.4-7.8-12.6-7.8s-16.5,4.1-21.8,9.2l-9.9-11.5c8.2-8.3,19.5-12.9,31.2-12.7c18.2,0,28.5,7.4,28.5,22.1
		c0,12.4-6.7,17.8-19.7,23.8c-13.7,6.2-19,11.3-20.4,17.2h40.8V261.8L73.8,261.8z"/>
</g>
<g id="Grupo_2229" transform="translate(133.883 -39.836)">
	<path id="Trazado_2235" class="st0" d="M73,261.8c0,23.4-11.4,39.8-32.4,39.8S8.5,285.4,8.5,262s11.3-39.6,32.3-39.6
		S73,238.4,73,261.8 M57.5,262c0-13.7-5.1-24.6-16.8-24.6S24.1,248,24.1,261.8c0,13.7,4.9,24.8,16.7,24.8S57.5,275.7,57.5,262"/>
</g>
<g id="Grupo_2230" transform="translate(201.92 -1.207)">
	<path id="Trazado_2236" class="st0" d="M71.6,261.8H11.5c0.4-26.3,16.6-37.7,35.3-46c6.6-2.9,8.7-5.9,8.7-9.2
		c0-3.9-3.4-7.8-12.6-7.8s-16.5,4-21.9,9.2l-9.9-11.5c8.2-8.3,19.5-12.9,31.2-12.7c18.2,0,28.5,7.4,28.5,22.1
		c0,12.4-6.7,17.8-19.8,23.8c-13.6,6.2-18.9,11.4-20.3,17.3h40.8L71.6,261.8L71.6,261.8z"/>
</g>
<g id="Grupo_2231" transform="translate(222.77 -3.74)">
	<path id="Trazado_2237" class="st0" d="M76,260.6l15.2-26.4v-47.9H78.5c-1.5,6.4-7.1,9.6-15.7,10v11.3H76V260.6L76,260.6z"/>
</g>
<g class="st1">
	<path class="st0" d="M250.5,12.8c0,5.4-3,8.7-7.4,8.7c-4.4,0-7.4-3.2-7.4-8.6c0-5.4,3-8.7,7.4-8.7C247.5,4.2,250.5,7.4,250.5,12.8z
		 M247,12.8c0-3.4-1.6-5.4-4-5.4s-3.9,1.9-3.9,5.3s1.6,5.4,4,5.4C245.5,18.1,247,16.2,247,12.8z"/>
	<path class="st0" d="M279.3,13.8c0,4.9-2.5,7.7-6.8,7.7c-4.1,0-6.8-2.7-6.8-7.6V4.4h3.4v9.4c0,2.7,1.3,4.4,3.4,4.4s3.5-1.7,3.5-4.3
		V4.4h3.4V13.8z"/>
	<path class="st0" d="M309.2,21.2h-3.9l-3-6h-3.4v6h-3.4V4.4h7.8c3.2,0,5.8,1.8,5.8,5.3c0,2.5-1.1,4.1-3.2,4.9L309.2,21.2z
		 M305.7,9.8c0-1.5-0.9-2.1-2.4-2.1h-4.4V12h4.4C304.9,12,305.7,11.3,305.7,9.8z"/>
</g>
<g class="st1">
	<path class="st0" d="M110.8,79.1c0,3.2-2,5.4-6.6,5.4c-2.8,0-5.3-1.2-6.5-3l2.4-2.2c1.2,1.4,2.7,1.9,4.3,1.9c2,0,2.9-0.6,2.9-1.8
		c0-1.1-0.6-1.6-3.7-2.3c-3.1-0.7-5.3-1.7-5.3-5c0-3,2.7-4.9,6-4.9c2.6,0,4.5,1,6.1,2.6l-2.4,2.4c-1.1-1.1-2.3-1.7-3.8-1.7
		c-1.8,0-2.4,0.8-2.4,1.5c0,1.1,0.7,1.4,3.4,2S110.8,75.5,110.8,79.1z"/>
	<path class="st0" d="M137.7,70.7h-4.8v13.5h-3.4V70.7h-4.8v-3.3h13V70.7z"/>
	<path class="st0" d="M166.5,84.2h-3.9l-3-6h-3.4v6h-3.4V67.4h7.8c3.2,0,5.8,1.8,5.8,5.3c0,2.5-1.1,4.1-3.2,4.9L166.5,84.2z
		 M163.1,72.8c0-1.5-0.9-2.1-2.4-2.1h-4.4V75h4.4C162.2,75,163.1,74.3,163.1,72.8z"/>
	<path class="st0" d="M194.1,84.2h-12V67.4h11.7v3.3h-8.3v2.9h4.8v3.3h-4.8v4.1h8.7V84.2z"/>
	<path class="st0" d="M223.3,84.2h-3l-6.2-9.2c-0.4-0.6-1-1.5-1.2-1.9c0,0.6,0,2.7,0,3.7v7.4h-3.3V67.4h3.2l6,8.9
		c0.4,0.6,1,1.5,1.2,1.9c0-0.6,0-2.7,0-3.7v-7.1h3.3V84.2z"/>
	<path class="st0" d="M252.8,77.7c0,4.3-2.9,6.8-6.7,6.8c-4.4,0-7.3-3.4-7.3-8.7c0-5.1,3.1-8.7,7.5-8.7c3.4,0,5.3,1.6,6.4,4.2
		l-3.2,1.3c-0.6-1.2-1.4-2.2-3.2-2.2c-2.5,0-4,2.2-4,5.3c0,3.1,1.5,5.4,4,5.4c2.3,0,3.1-1.1,3.3-2.5h-2.7v-3.1h6V77.7z"/>
	<path class="st0" d="M279.5,70.7h-4.8v13.5h-3.4V70.7h-4.8v-3.3h13V70.7z"/>
	<path class="st0" d="M308.4,84.2H305v-7.1h-6.9v7.1h-3.4V67.4h3.4v6.4h6.9v-6.4h3.4V84.2z"/>
</g>
<g class="st1">
	<path class="st0" d="M196.5,133.7h-4.8v13.5h-3.4v-13.5h-4.8v-3.3h13V133.7z"/>
	<path class="st0" d="M224.8,138.8c0,5.4-3,8.7-7.4,8.7c-4.4,0-7.4-3.2-7.4-8.6c0-5.4,3-8.7,7.4-8.7
		C221.8,130.2,224.8,133.4,224.8,138.8z M221.3,138.8c0-3.4-1.6-5.4-4-5.4c-2.4,0-3.9,1.9-3.9,5.3s1.6,5.4,4,5.4
		C219.8,144.1,221.3,142.2,221.3,138.8z"/>
	<path class="st0" d="M253.8,138.8c0,5.9-4.3,8.4-8.6,8.4h-5v-16.8h5.3C250.2,130.4,253.8,132.7,253.8,138.8z M250.3,138.8
		c0-3.4-1.5-5.1-5-5.1h-1.8V144h1.7C248.7,144,250.3,141.9,250.3,138.8z"/>
	<path class="st0" d="M283.2,147.2h-3.7l-1.3-3.7h-6.1l-1.3,3.7h-3.6l6.4-16.8h3.3L283.2,147.2z M277,140.3l-1.1-3
		c-0.3-1-0.7-2-0.8-2.6c-0.2,0.6-0.5,1.6-0.8,2.6l-1.1,3H277z"/>
	<path class="st0" d="M310,130.4l-6.4,10.2v6.6h-3.4v-6.6l-6.4-10.2h3.9l2.4,4c0.6,1,1.5,2.7,1.8,3.3c0.3-0.6,1.2-2.2,1.8-3.3l2.4-4
		H310z"/>
</g>
</svg>
