<?xml version="1.0" encoding="UTF-8"?>
<svg id="Capa_1" data-name="Capa 1" xmlns="http://www.w3.org/2000/svg" viewBox="0 0 521.15 79.02">
  <defs>
    <style>
      .cls-1 {
        fill: #fff;
      }
    </style>
  </defs>
  <g id="Grupo_2028" data-name="Grupo 2028">
    <path id="Trazado_1764" data-name="Trazado 1764" class="cls-1" d="M47.29,44.7c0,11.5-7.26,19.28-23.78,19.28-10.12,0-18.93-4.24-23.52-10.98l8.73-7.78c3.84,4.53,9.54,7.08,15.48,6.92,7.18,0,10.55-1.99,10.55-6.57,0-3.89-2.08-5.62-13.49-8.21C10.12,34.76,2.33,31.21,2.33,19.28,2.33,8.3,12.02,1.56,23.95,1.56c8.38-.18,16.43,3.29,22.05,9.51l-8.73,8.47c-3.89-3.98-8.21-6.23-13.75-6.23-6.48,0-8.65,2.77-8.65,5.45,0,3.8,2.59,5.01,12.19,7.26s20.23,5.53,20.23,18.67"/>
    <path id="Trazado_1765" data-name="Trazado 1765" class="cls-1" d="M93.46,63.03h-11.93v-3.03c-2.88,2.68-6.7,4.11-10.63,3.98-11.59,0-16.77-7.95-16.77-20.75V17.64h11.93v24.55c0,8.13,2.77,10.55,7.7,10.55s7.78-2.42,7.78-10.29V17.64h11.93V63.03Z"/>
    <path id="Trazado_1766" data-name="Trazado 1766" class="cls-1" d="M137.38,49.8c0,10.46-8.3,14.18-18.5,14.18-6.71,.07-13.3-1.76-19.02-5.27l3.98-9.08c4.79,2.73,10.22,4.16,15.73,4.15,4.67,0,6.05-1.12,6.05-3.46,0-2.07-1.64-3.11-6.66-4.58-10.89-3.29-17.9-5.97-17.9-15.56s7.52-13.49,18.16-13.49c5.87,.09,11.62,1.6,16.77,4.41l-3.8,9.42c-4.06-2.24-8.59-3.48-13.23-3.63-4.84,0-6.14,.95-6.14,2.94s1.38,2.68,9.42,5.27c8.13,2.68,15.13,5.62,15.13,14.7"/>
    <path id="Trazado_1767" data-name="Trazado 1767" class="cls-1" d="M171.44,49.11l-1.73,12.1c-2.72,1.86-5.95,2.83-9.25,2.77-7.35,0-12.1-5.71-12.1-13.66V28.88h-7.61v-11.24h7.6V5.97L160.29,0V17.64h10.89v11.24h-10.89v18.24c0,4.32,1.56,5.45,4.41,5.45,2.16,0,3.8-.95,6.74-3.46"/>
    <path id="Trazado_1768" data-name="Trazado 1768" class="cls-1" d="M215.96,63.03h-11.93v-3.03c-2.75,2.61-6.41,4.04-10.2,3.98-8.47,0-16.95-5.19-16.95-16.17,0-10.03,8.13-15.04,18.42-15.04,3.01-.1,6.01,.52,8.73,1.82v-2.25c0-3.2-2.16-5.79-6.48-5.79-5.45,0-8.3,.78-12.45,3.03l-4.58-8.3c5.1-3.17,11.03-4.76,17.03-4.58,10.98,0,18.42,5.71,18.42,15.91v30.43Zm-11.93-13.31v-5.71c-2.08-1.3-4.06-1.9-8.3-1.9-4.5,0-6.92,2.07-6.92,5.71,0,3.2,1.82,6.05,6.92,6.05,3.29,.1,6.41-1.46,8.3-4.15"/>
    <path id="Trazado_1769" data-name="Trazado 1769" class="cls-1" d="M236.8,7.08c0,3.77-3.06,6.83-6.83,6.83s-6.83-3.06-6.83-6.83,3.06-6.83,6.83-6.83,6.83,3.06,6.83,6.83m-.86,55.94h-11.93V17.64h11.93V63.02Z"/>
    <path id="Trazado_1770" data-name="Trazado 1770" class="cls-1" d="M283.74,63.03h-11.93v-24.55c0-8.13-2.77-10.55-7.69-10.55s-7.78,2.42-7.78,10.29v24.81h-11.93V17.64h11.93v3.02c2.88-2.68,6.7-4.11,10.63-3.98,11.59,0,16.77,7.95,16.77,20.75v25.59Z"/>
    <path id="Trazado_1771" data-name="Trazado 1771" class="cls-1" d="M328.27,63.03h-11.93v-3.03c-2.75,2.61-6.41,4.04-10.2,3.98-8.47,0-16.95-5.19-16.95-16.17,0-10.03,8.13-15.04,18.41-15.04,3.01-.1,6.01,.52,8.73,1.82v-2.25c0-3.2-2.16-5.79-6.48-5.79-5.45,0-8.3,.78-12.45,3.03l-4.58-8.3c5.1-3.17,11.03-4.76,17.03-4.58,10.98,0,18.41,5.71,18.41,15.91v30.43Zm-11.93-13.31v-5.71c-2.08-1.3-4.06-1.9-8.3-1.9-4.5,0-6.92,2.07-6.92,5.71,0,3.2,1.82,6.05,6.92,6.05,3.29,.1,6.41-1.46,8.3-4.15"/>
    <path id="Trazado_1772" data-name="Trazado 1772" class="cls-1" d="M375.04,40.89c0,13.57-6.4,23.08-17.64,23.08-3.53,.04-6.94-1.23-9.6-3.54v2.59h-11.93V5.97L347.8,0V20.49c2.6-2.44,6.03-3.8,9.6-3.8,9.68,0,17.64,7.26,17.64,24.21m-12.1,.26c0-9.34-3.11-13.23-7.78-13.23-3.72,0-5.62,1.56-7.35,3.8v17.12c1.87,2.55,4.88,4.01,8.04,3.89,4.58,0,7.09-3.98,7.09-11.58"/>
    <path id="Trazado_1773" data-name="Trazado 1773" class="cls-1" d="M394.14,7.08c0,3.77-3.07,6.82-6.84,6.82-3.76,0-6.81-3.05-6.82-6.82,0-3.77,3.07-6.82,6.84-6.82,3.76,0,6.81,3.05,6.82,6.82m-.86,55.94h-11.93V17.64h11.93V63.02Z"/>
    <path id="Trazado_1774" data-name="Trazado 1774" class="cls-1" d="M414.11,63.03h-11.93V5.97l11.93-5.97V63.03Z"/>
    <path id="Trazado_1775" data-name="Trazado 1775" class="cls-1" d="M435.81,7.08c0,3.77-3.06,6.83-6.83,6.83s-6.83-3.06-6.83-6.83,3.06-6.83,6.83-6.83,6.83,3.06,6.83,6.83m-.86,55.94h-11.93V17.64h11.93V63.02Z"/>
    <path id="Trazado_1776" data-name="Trazado 1776" class="cls-1" d="M470.48,49.11l-1.73,12.1c-2.72,1.86-5.95,2.83-9.25,2.77-7.35,0-12.1-5.71-12.1-13.66V28.88h-7.61v-11.24h7.61V5.97L459.33,0V17.64h10.9v11.24h-10.9v18.24c0,4.32,1.56,5.45,4.41,5.45,2.16,0,3.8-.95,6.74-3.46"/>
    <path id="Trazado_1777" data-name="Trazado 1777" class="cls-1" d="M486.04,79.02h3.9l23.03-39.89,8.17-21.5h-12.8l-7.44,21.87c-1.21,3.54-2.42,7.69-2.94,9.94-.52-2.16-1.73-6.48-2.94-9.94l-7.43-21.88h-13.14l17.64,45.39-6.05,16Z"/>
  </g>
</svg>