<?xml version="1.0" encoding="utf-8"?>
<!-- Generator: Adobe Illustrator 26.3.1, SVG Export Plug-In . SVG Version: 6.00 Build 0)  -->
<svg version="1.1" id="a" xmlns="http://www.w3.org/2000/svg" xmlns:xlink="http://www.w3.org/1999/xlink" x="0px" y="0px"
	 viewBox="0 0 90 58" style="enable-background:new 0 0 90 58;" xml:space="preserve">
<style type="text/css">
	.st0{fill:#00C9FF;}
</style>
<g>
	<g id="c" transform="translate(0 0)">
		<path id="d" class="st0" d="M46,28.9C46,43,39.1,53,26.4,53S7,43.2,7,29S13.8,5,26.5,5S46,14.7,46,28.9 M36.6,29
			c0-8.3-3.1-14.9-10.2-14.9s-10,6.4-10,14.7s3,15,10.1,15S36.6,37.3,36.6,29"/>
	</g>
	<g id="e" transform="translate(15.636 0)">
		<path id="f" class="st0" d="M50.1,43.9c-4.7,0.1-9.2-1.9-12.2-5.5l-7.1,5.7c4.4,5.7,11.2,9,18.4,8.9c2.4,0,4.8-0.2,7.2-0.8
			l11-19.1c-1.3-2.5-3.6-4.5-6.3-5.4c3.5-1.9,5.6-5.6,5.4-9.5C66.5,9.4,59,5,49.5,5c-6.1-0.2-12,2.3-16,6.8l6.8,6.2
			c2.3-2.6,5.7-4,9.1-3.9c5.8,0,7.8,2.3,7.8,4.7c0,3.1-1.6,4.7-5.5,4.7h-5v9.1h5.5c4.4,0,6.9,1.7,6.9,5.3
			C59,41.6,56.2,43.9,50.1,43.9"/>
	</g>
</g>
</svg>
