<?xml version="1.0" encoding="utf-8"?>
<!-- Generator: Adobe Illustrator 26.1.0, SVG Export Plug-In . SVG Version: 6.00 Build 0)  -->
<svg version="1.1" id="a" xmlns="http://www.w3.org/2000/svg" xmlns:xlink="http://www.w3.org/1999/xlink" x="0px" y="0px"
	 viewBox="0 0 90 58" style="enable-background:new 0 0 90 58;" xml:space="preserve">
<style type="text/css">
	.st0{fill:#FFFFFF;}
</style>
<g>
	<g id="c" transform="translate(0 0)">
		<path id="d" class="st0" d="M42.8,28.9c0,14.1-6.9,24-19.5,24S3.8,43.1,3.8,29S10.7,5.1,23.3,5.1S42.8,14.8,42.8,28.9 M33.4,29
			c0-8.3-3-14.8-10.1-14.8s-10,6.4-10,14.7s3,15,10.1,15S33.4,37.3,33.4,29"/>
	</g>
	<g id="e" transform="translate(16.165 0.277)">
		<path id="f" class="st0" d="M57.7,52.2h1.9L70,34.1h-3.4V5.8h-9.7L32.3,34.4v8.4h25.4C57.7,42.7,57.7,52.2,57.7,52.2z M52,34.1
			c-2.7,0-7.6,0.1-9.2,0.1c1-1,2.9-3.1,4.4-4.8l6.6-7.8c1.5-1.8,3.2-4,4.1-5.2c0,1.7-0.2,7.5-0.2,10.1v7.6H52L52,34.1z"/>
	</g>
</g>
</svg>
