<?xml version="1.0" encoding="utf-8"?>
<!-- Generator: Adobe Illustrator 26.0.3, SVG Export Plug-In . SVG Version: 6.00 Build 0)  -->
<svg version="1.1" id="Capa_1" xmlns="http://www.w3.org/2000/svg" xmlns:xlink="http://www.w3.org/1999/xlink" x="0px" y="0px"
	 viewBox="0 0 262.7 143.3" style="enable-background:new 0 0 262.7 143.3;" xml:space="preserve">
<style type="text/css">
	.st0{fill:#FFFFFF;}
</style>
<g>
	<g>
		<path class="st0" d="M0,34.3V22.4h8.3v2.4H2.4v2.1h3.5v2.4H2.4V32h6.2v2.4L0,34.3L0,34.3z"/>
		<path class="st0" d="M25.9,34.5c-2,0-3.8-0.8-4.6-2.2l1.7-1.5c0.8,1,1.9,1.4,3.1,1.4c1.4,0,2.1-0.4,2.1-1.3c0-0.7-0.4-1.1-2.7-1.6
			c-2.2-0.5-3.8-1.3-3.8-3.6c0-2.2,1.9-3.5,4.3-3.5c1.8,0,3.2,0.7,4.3,1.9l-1.7,1.7c-0.7-0.8-1.6-1.3-2.7-1.3
			c-1.3,0-1.7,0.5-1.7,1.1c0,0.7,0.5,1,2.4,1.5c1.9,0.4,4,1.1,4,3.7C30.6,33,29.2,34.5,25.9,34.5z"/>
		<path class="st0" d="M60,34.3V22.4h2.4V32h6v2.4L60,34.3L60,34.3z"/>
		<path class="st0" d="M89.6,34.3l-1-2.7h-4.4l-1,2.7h-2.6l4.6-12h2.4l4.6,12H89.6z M87.1,27.2c-0.2-0.7-0.5-1.4-0.6-1.8
			c-0.1,0.4-0.4,1.2-0.6,1.8l-0.7,2.2h2.7L87.1,27.2z"/>
		<path class="st0" d="M121.3,34.3V22.4h8.3v2.4h-5.9v2.1h3.5v2.4h-3.5V32h6.2v2.4L121.3,34.3L121.3,34.3z"/>
		<path class="st0" d="M151,34.3l-4.4-6.6c-0.3-0.4-0.7-1-0.8-1.3c0,0.4,0,2,0,2.7v5.3h-2.4v-12h2.3l4.3,6.3c0.3,0.4,0.7,1,0.8,1.3
			c0-0.4,0-2,0-2.7v-5h2.4v12L151,34.3L151,34.3z"/>
		<path class="st0" d="M167.2,34.3V22.4h8.3v2.4h-5.9v2.1h3.5v2.4h-3.5V32h6.2v2.4L167.2,34.3L167.2,34.3z"/>
		<path class="st0" d="M196.3,34.3l-2.1-4.3h-2.4v4.3h-2.4V22.4h5.6c2.3,0,4.1,1.3,4.1,3.8c0,1.8-0.7,2.9-2.3,3.5l2.3,4.6
			L196.3,34.3L196.3,34.3z M194.8,24.6h-3.2v3.1h3.2c1.1,0,1.7-0.5,1.7-1.5C196.5,25.1,195.9,24.6,194.8,24.6z"/>
		<path class="st0" d="M217.1,34.5c-3.2,0-5.2-2.4-5.2-6.2c0-3.7,2.2-6.2,5.3-6.2c2.4,0,3.8,1.2,4.6,3l-2.3,1
			c-0.4-0.9-1-1.5-2.3-1.5c-1.8,0-2.8,1.5-2.8,3.8c0,2.2,1,3.8,2.9,3.8c1.6,0,2.2-0.7,2.4-1.8h-1.9v-2.2h4.3v1.5
			C221.9,32.8,219.8,34.5,217.1,34.5z"/>
		<path class="st0" d="M237.5,21.6h-2l1.5-2.7h3L237.5,21.6z M235.5,34.3V22.4h2.4v12L235.5,34.3L235.5,34.3z"/>
		<path class="st0" d="M260.1,34.3l-1-2.7h-4.4l-1,2.7h-2.6l4.6-12h2.4l4.6,12H260.1z M257.6,27.2c-0.2-0.7-0.5-1.4-0.6-1.8
			c-0.1,0.4-0.4,1.2-0.6,1.8l-0.7,2.2h2.7L257.6,27.2z"/>
	</g>
	<g>
		<path class="st0" d="M3.6,79.3H0v-12h3.8c3.5,0,6,1.6,6,6C9.7,77.5,6.6,79.3,3.6,79.3z M3.7,69.7H2.4V77h1.2
			c2.5,0,3.7-1.5,3.7-3.7C7.2,70.8,6.2,69.7,3.7,69.7z"/>
		<path class="st0" d="M23.1,79.3v-12h8.3v2.4h-5.9v2.1H29v2.4h-3.5V77h6.2v2.4C31.7,79.3,23.1,79.3,23.1,79.3z"/>
		<path class="st0" d="M68.7,79.3l-4.4-6.6c-0.3-0.4-0.7-1-0.8-1.3c0,0.4,0,2,0,2.7v5.3h-2.4V67.3h2.3l4.3,6.3
			c0.3,0.4,0.7,1,0.8,1.3c0-0.4,0-2,0-2.7v-5.1h2.4v12L68.7,79.3L68.7,79.3z"/>
		<path class="st0" d="M89.6,79.5c-2.9,0-4.9-2-4.9-5.5v-6.7h2.4v6.7c0,1.9,1,3.2,2.4,3.2c1.5,0,2.4-1.2,2.4-3.1v-6.7h2.4v6.7
			C94.4,77.5,92.7,79.5,89.6,79.5z"/>
		<path class="st0" d="M108.4,79.3v-12h8.3v2.4h-5.9v2.1h3.5v2.4h-3.5V77h6.2v2.4C117.1,79.3,108.4,79.3,108.4,79.3z"/>
		<path class="st0" d="M134.4,79.5c-2,0-3.8-0.8-4.6-2.2l1.7-1.5c0.8,1,1.9,1.4,3.1,1.4c1.4,0,2.1-0.4,2.1-1.3
			c0-0.7-0.4-1.1-2.7-1.6c-2.2-0.5-3.8-1.3-3.8-3.6c0-2.2,1.9-3.5,4.3-3.5c1.8,0,3.2,0.7,4.3,1.9l-1.7,1.7c-0.7-0.8-1.6-1.3-2.7-1.3
			c-1.3,0-1.7,0.5-1.7,1.1c0,0.7,0.5,1,2.4,1.5c1.9,0.4,4,1.1,4,3.7C139,78,137.6,79.5,134.4,79.5z"/>
		<path class="st0" d="M157.2,69.7v9.7h-2.4v-9.7h-3.5v-2.4h9.3v2.4H157.2z"/>
		<path class="st0" d="M180.9,79.3l-2.1-4.3h-2.4v4.3h-2.4v-12h5.6c2.3,0,4.1,1.3,4.1,3.8c0,1.8-0.7,2.9-2.3,3.5l2.3,4.6H180.9z
			 M179.5,69.7h-3.2v3.1h3.2c1.1,0,1.7-0.5,1.7-1.5C181.1,70.1,180.5,69.7,179.5,69.7z"/>
		<path class="st0" d="M201.7,79.5c-3.2,0-5.3-2.3-5.3-6.2s2.2-6.2,5.3-6.2c3.1,0,5.2,2.3,5.2,6.2C207,77.2,204.8,79.5,201.7,79.5z
			 M201.7,69.5c-1.7,0-2.8,1.3-2.8,3.8c0,2.4,1.2,3.8,2.9,3.8s2.8-1.3,2.8-3.8S203.4,69.5,201.7,69.5z"/>
	</g>
	<g>
		<path class="st0" d="M2.4,114.7v2.3H6v2.4H2.4v5.1H0v-12h8.6v2.4L2.4,114.7L2.4,114.7z"/>
		<path class="st0" d="M26.4,124.5c-2.9,0-4.9-2-4.9-5.5v-6.7H24v6.7c0,1.9,1,3.2,2.4,3.2c1.5,0,2.4-1.2,2.4-3.1v-6.7h2.4v6.7
			C31.3,122.5,29.5,124.5,26.4,124.5z"/>
		<path class="st0" d="M50.3,114.7v9.7h-2.4v-9.7h-3.5v-2.4h9.4v2.4H50.3z"/>
		<path class="st0" d="M71.8,124.5c-2.9,0-4.9-2-4.9-5.5v-6.7h2.4v6.7c0,1.9,1,3.2,2.4,3.2c1.5,0,2.4-1.2,2.4-3.1v-6.7h2.4v6.7
			C76.6,122.5,74.8,124.5,71.8,124.5z"/>
		<path class="st0" d="M97.5,124.2l-2.1-4.3H93v4.3h-2.4v-12h5.6c2.3,0,4.1,1.3,4.1,3.8c0,1.8-0.7,2.9-2.3,3.5l2.3,4.6H97.5z
			 M96.1,114.6H93v3.1h3.2c1.1,0,1.7-0.5,1.7-1.5C97.8,115,97.2,114.6,96.1,114.6z"/>
		<path class="st0" d="M118.4,124.5c-3.2,0-5.3-2.3-5.3-6.2c0-3.9,2.2-6.2,5.3-6.2c3.1,0,5.2,2.3,5.2,6.2
			C123.6,122.2,121.6,124.5,118.4,124.5z M118.4,114.5c-1.7,0-2.8,1.3-2.8,3.8s1.2,3.8,2.9,3.8c1.7,0,2.8-1.3,2.8-3.8
			C121.3,115.9,120.1,114.5,118.4,114.5z"/>
	</g>
</g>
</svg>
