<?xml version="1.0" encoding="utf-8"?>
<!-- Generator: Adobe Illustrator 26.1.0, SVG Export Plug-In . SVG Version: 6.00 Build 0)  -->
<svg version="1.1" id="a" xmlns="http://www.w3.org/2000/svg" xmlns:xlink="http://www.w3.org/1999/xlink" x="0px" y="0px"
	 viewBox="0 0 90 58" style="enable-background:new 0 0 90 58;" xml:space="preserve">
<style type="text/css">
	.st0{fill:#FFFFFF;}
</style>
<g>
	<g id="c" transform="translate(0 0)">
		<path id="d" class="st0" d="M45.3,28.9c0,14.1-6.9,24.1-19.6,24.1S6.4,43.1,6.4,29S13.2,5.1,25.9,5.1S45.3,14.7,45.3,28.9
			 M35.9,29c0-8.3-3-14.9-10.1-14.9s-10,6.4-10,14.7s3,15,10.1,15S35.9,37.3,35.9,29"/>
	</g>
	<g id="e" transform="translate(16.581 0)">
		<path id="f" class="st0" d="M50.2,14.2c5.6,0,7.6,2.3,7.6,4.7c0,2-1.3,3.8-5.2,5.6c-11.3,5-21.1,11.9-21.3,27.8h25.2l5.2-9H42.9
			c0.9-3.6,4-6.7,12.3-10.5c7.9-3.6,11.9-6.9,11.9-14.4c0-8.9-6.2-13.3-17.2-13.3C42.8,5,36,7.7,31,12.8l6,7
			C40.5,16.2,45.2,14.2,50.2,14.2"/>
	</g>
</g>
</svg>
