<?xml version="1.0" encoding="utf-8"?>
<!-- Generator: Adobe Illustrator 26.2.1, SVG Export Plug-In . SVG Version: 6.00 Build 0)  -->
<svg version="1.1" id="Capa_1" xmlns="http://www.w3.org/2000/svg" xmlns:xlink="http://www.w3.org/1999/xlink" x="0px" y="0px"
	 viewBox="0 0 90 58" style="enable-background:new 0 0 90 58;" xml:space="preserve">
<style type="text/css">
	.st0{fill:#0080FF;}
</style>
<g>
	<g id="Grupo_1753" transform="translate(0 0)">
		<path id="Trazado_1739" class="st0" d="M44.5,28.9C44.5,43,37.6,53,25,53S5.5,43.1,5.5,29S12.4,5.1,25,5.1S44.5,14.8,44.5,28.9
			 M35.1,29c0-8.3-3-14.9-10.1-14.9s-10,6.4-10,14.7s3,15,10.1,15S35.1,37.2,35.1,29"/>
	</g>
	<g id="Grupo_1754" transform="translate(16.348 0.278)">
		<path id="Trazado_1740" class="st0" d="M49.3,44c-4.8-0.1-9.5-1.4-13.6-3.9L31.2,48c5.4,3.4,11.7,5.2,18.1,5c2.4,0,4.7-0.3,7-0.8
			l11.8-20.5c-1.6-6.5-6.8-10.9-15.4-10.9c-3.4-0.2-6.7,0.6-9.7,2.1l0.5-8h22.3V5.8H35L33.4,29l8.8,3.2c2.7-1.9,5.9-2.9,9.1-2.8
			c4.4,0,7.9,2,7.9,6.9S55.6,44,49.3,44"/>
	</g>
</g>
</svg>
