<?xml version="1.0" encoding="utf-8"?>
<!-- Generator: Adobe Illustrator 26.3.1, SVG Export Plug-In . SVG Version: 6.00 Build 0)  -->
<svg version="1.1" id="a" xmlns="http://www.w3.org/2000/svg" xmlns:xlink="http://www.w3.org/1999/xlink" x="0px" y="0px"
	 viewBox="0 0 90 58" style="enable-background:new 0 0 90 58;" xml:space="preserve">
<style type="text/css">
	.st0{fill:#54D18E;}
</style>
<g id="Grupo_2278">
	<path id="Trazado_2274" class="st0" d="M45,28.9c0-14-6.8-23.5-19.3-23.5S6.5,15.1,6.5,29.1s6.7,23.7,19.2,23.7S45,42.9,45,28.9
		 M15.8,28.9c0-8.2,2.9-14.6,9.9-14.6s10,6.5,10,14.7s-3,14.7-10,14.7S15.8,37.1,15.8,28.9"/>
	<path id="Trazado_2275" class="st0" d="M59.7,43.2c0.9-3.5,4-6.6,12.1-10.4c0.6-0.3,1.1-0.5,1.6-0.8l9.8-17
		c-1.5-6.4-7.3-9.7-16.7-9.7C59.6,5.3,52.8,8,47.9,13l5.9,6.9c3.5-3.5,8.1-5.5,13.1-5.5c5.5,0,7.5,2.3,7.5,4.7c0,2-1.2,3.8-5.2,5.5
		C58,29.5,48.4,36.3,48.1,52h13.8l5.1-8.9L59.7,43.2z"/>
</g>
</svg>
