<?xml version="1.0" encoding="utf-8"?>
<!-- Generator: Adobe Illustrator 26.4.1, SVG Export Plug-In . SVG Version: 6.00 Build 0)  -->
<svg version="1.1" id="Capa_1" xmlns="http://www.w3.org/2000/svg" xmlns:xlink="http://www.w3.org/1999/xlink" x="0px" y="0px"
	 viewBox="0 0 320.4 205.5" style="enable-background:new 0 0 320.4 205.5;" xml:space="preserve">
<style type="text/css">
	.st0{fill:#37C0CC;}
	.st1{fill:#0080FF;}
	.st2{enable-background:new    ;}
	.st3{fill:#FFFFFF;}
</style>
<g>
	<g id="Layer_2_00000113354828464567146950000013700929820193332379_" transform="translate(0 -0.007)">
		<g id="Layer_1_00000000939637013804792170000007924242995206583712_" transform="translate(0 0.007)">
			<g>
				<g id="Grupo_2492_00000157278108177095745890000008780402442721301431_">
					<path id="Trazado_2504_00000013182894982507799160000006833456472251632033_" class="st0" d="M103.4,103l95.1,30.9
						c-17.3,52.4-73.9,80.9-126.3,63.6C20.1,180.2-8.4,124.3,8.3,72.1C21.9,30.1,59.2,3,103.4,3V103z"/>
					<path id="Trazado_2505_00000182517534750402837380000013750696021114923136_" class="st1" d="M103.4,103V3
						c55.2,0,100,44.8,100,100l0,0c0.1,10.5-1.6,20.9-4.9,30.9L103.4,103z"/>
				</g>
			</g>
			<g class="st2">
				<path class="st3" d="M51,119.4c-1.8,1.8-3,4.2-3,7.3h-1.9c0-3,1-5.4,2.7-7.4h-4.6v-1.7H51V119.4z"/>
			</g>
			<g class="st2">
				<path class="st3" d="M59.4,122.2c0,2.8-1.4,4.7-3.8,4.7c-2.5,0-3.8-1.9-3.8-4.7c0-2.8,1.3-4.7,3.8-4.7S59.4,119.4,59.4,122.2z
					 M57.6,122.2c0-1.6-0.6-2.9-2-2.9s-2,1.3-2,2.9s0.6,2.9,2,2.9S57.6,123.8,57.6,122.2z"/>
				<path class="st3" d="M65.4,120.3c0,1.7-1,2.8-2.4,2.8s-2.4-1.1-2.4-2.8c0-1.8,1-2.8,2.4-2.8S65.4,118.6,65.4,120.3z M63.9,120.4
					c0-1.1-0.3-1.6-0.9-1.6s-0.9,0.5-0.9,1.6s0.3,1.6,0.9,1.6S63.9,121.4,63.9,120.4z M70.1,117.7l-5.6,9.1H63l5.6-9.1H70.1z
					 M72.6,124.1c0,1.7-1,2.8-2.4,2.8s-2.4-1.1-2.4-2.8c0-1.8,1-2.8,2.4-2.8C71.6,121.3,72.6,122.3,72.6,124.1z M71.1,124.1
					c0-1.1-0.3-1.6-0.9-1.6s-0.9,0.5-0.9,1.6s0.3,1.6,0.9,1.6S71.1,125.1,71.1,124.1z"/>
			</g>
			<g class="st2">
				<path class="st3" d="M146.5,71.2c0,2-1.5,3-3.8,3c-1.4,0-2.6-0.5-3.6-1.7l1.4-1.1c0.8,0.8,1.5,1.1,2.4,1.1
					c1.2,0,1.8-0.4,1.8-1.2c0-0.7-0.5-1-1.3-1h-1.1v-1.8h1c0.8,0,1.1-0.3,1.1-0.9c0-0.5-0.4-0.9-1.5-0.9c-0.7,0-1.3,0.2-1.8,0.8
					l-1.3-1.2c0.9-0.9,1.8-1.3,3.1-1.3c1.9,0,3.3,0.9,3.3,2.6c0,1-0.5,1.6-1.1,1.9C145.7,69.5,146.5,70,146.5,71.2z"/>
			</g>
			<g class="st2">
				<path class="st3" d="M155.2,69.5c0,2.8-1.4,4.7-3.8,4.7c-2.5,0-3.8-1.9-3.8-4.7c0-2.8,1.3-4.7,3.8-4.7S155.2,66.7,155.2,69.5z
					 M153.3,69.5c0-1.6-0.6-2.9-2-2.9s-2,1.3-2,2.9s0.6,2.9,2,2.9S153.3,71.1,153.3,69.5z"/>
			</g>
			<g class="st2">
				<path class="st3" d="M160.8,67.6c0,1.7-1,2.8-2.4,2.8s-2.4-1.1-2.4-2.8c0-1.8,1-2.8,2.4-2.8C159.9,64.8,160.8,65.9,160.8,67.6z
					 M159.4,67.7c0-1.1-0.3-1.6-0.9-1.6s-0.9,0.5-0.9,1.6s0.3,1.6,0.9,1.6S159.4,68.6,159.4,67.7z M165.6,65l-5.6,9.1h-1.6L164,65
					H165.6z M168,71.4c0,1.7-1,2.8-2.4,2.8s-2.4-1.1-2.4-2.8c0-1.8,1-2.8,2.4-2.8C167.1,68.5,168,69.6,168,71.4z M166.6,71.4
					c0-1.1-0.3-1.6-0.9-1.6s-0.9,0.5-0.9,1.6s0.3,1.6,0.9,1.6S166.6,72.4,166.6,71.4z"/>
			</g>
		</g>
	</g>
</g>
<g>
	
		<rect id="Rectángulo_1065_00000179615516506262179090000008672746166552454589_" x="225.7" y="78" class="st1" width="18" height="18"/>
	<g class="st2">
		<path class="st3" d="M261.4,92h-1.5v-5.5c0-0.6,0-1.5,0-1.8c-0.1,0.3-0.4,1-0.7,1.6l-2.5,5.9l-2.5-5.9c-0.3-0.6-0.6-1.3-0.7-1.6
			c0,0.3,0,1.2,0,1.8V92H252V81.5h1.6l2.4,5.6c0.3,0.6,0.6,1.4,0.7,1.8c0.2-0.4,0.5-1.2,0.7-1.8l2.3-5.6h1.7V92z"/>
		<path class="st3" d="M270.2,92h-1.5v-0.8c-0.4,0.6-1.2,0.9-2,0.9c-1.8,0-2.8-1.2-2.8-3.5v-4.5h1.5v4.5c0,1.6,0.6,2.2,1.6,2.2
			s1.6-0.7,1.6-2v-4.6h1.5L270.2,92L270.2,92z"/>
		<path class="st3" d="M274.1,91.6c0,2-0.5,2.8-2.7,3.3l-0.5-1.2c1.4-0.4,1.6-0.7,1.6-2.1v-7.5h1.5v7.5H274.1z M274.3,82.1
			c0,0.5-0.5,1-1,1c-0.6,0-1-0.5-1-1c0-0.6,0.5-1,1-1C273.9,81.1,274.3,81.5,274.3,82.1z"/>
		<path class="st3" d="M282.9,87.9c0,0.3,0,0.5,0,0.7h-5.2c0.2,1.5,1,2.2,2,2.2c0.7,0,1.2-0.2,1.7-0.6l0.9,1c-0.7,0.7-1.5,1-2.7,1
			c-1.8,0-3.4-1.5-3.4-4.1c0-2.7,1.4-4.1,3.5-4.1C281.8,83.9,282.9,85.7,282.9,87.9z M281.3,87.3c-0.1-1.1-0.6-2-1.9-2
			c-1,0-1.7,0.7-1.8,2H281.3z"/>
		<path class="st3" d="M289.5,84.3l-0.4,1.5c-0.3-0.2-0.7-0.3-1.2-0.3c-1,0-1.5,0.7-1.5,2V92h-1.5v-7.9h1.5v0.8
			c0.4-0.5,1-0.9,1.8-0.9C288.8,83.9,289.1,84,289.5,84.3z"/>
		<path class="st3" d="M297.1,87.9c0,0.3,0,0.5,0,0.7h-5.2c0.2,1.5,1,2.2,2,2.2c0.7,0,1.2-0.2,1.7-0.6l0.9,1c-0.7,0.7-1.5,1-2.7,1
			c-1.8,0-3.4-1.5-3.4-4.1c0-2.7,1.4-4.1,3.4-4.1C296,83.9,297.1,85.7,297.1,87.9z M295.5,87.3c-0.1-1.1-0.6-2-1.9-2
			c-1,0-1.7,0.7-1.8,2H295.5z"/>
		<path class="st3" d="M304.3,89.8c0,1.7-1.4,2.3-3,2.3c-1.1,0-2.2-0.4-3-1l0.7-1.2c0.7,0.5,1.6,0.8,2.3,0.8c1,0,1.4-0.3,1.4-0.9
			s-0.7-0.9-1.8-1.3c-1.7-0.7-2.3-1.2-2.3-2.5c0-1.4,1.1-2.1,2.7-2.1c1,0,2,0.4,2.7,0.9l-0.7,1.2c-0.6-0.5-1.3-0.7-2-0.7
			s-1.1,0.3-1.1,0.7c0,0.4,0.3,0.7,1.5,1.1C303.4,87.8,304.3,88.3,304.3,89.8z"/>
	</g>
	
		<rect id="Rectángulo_1066_00000048463287544183254310000016291406575325998259_" x="225.7" y="111" class="st0" width="18" height="18"/>
	<g class="st2">
		<path class="st3" d="M260,125h-1.6v-4.7h-4.8v4.7H252v-10.5h1.6v4.2h4.8v-4.2h1.6V125z"/>
		<path class="st3" d="M269.2,121c0,2.6-1.5,4.1-3.6,4.1c-2,0-3.5-1.6-3.5-4.1c0-2.6,1.5-4.1,3.5-4.1
			C267.7,116.9,269.2,118.5,269.2,121z M267.6,121c0-1.6-0.8-2.6-2-2.6s-1.9,1-1.9,2.6c0,1.7,0.8,2.7,2,2.7S267.6,122.5,267.6,121z"
			/>
		<path class="st3" d="M281.8,125h-1.5v-4.5c0-1.6-0.5-2.2-1.5-2.2s-1.5,0.7-1.5,2v4.6h-1.5v-4.5c0-1.6-0.5-2.2-1.5-2.2
			s-1.5,0.7-1.5,2v4.6h-1.5v-7.9h1.5v0.8c0.4-0.6,1.1-0.9,1.9-0.9c1.1,0,1.7,0.4,2.2,1.2c0.6-0.7,1.2-1.2,2.4-1.2
			c1.8,0,2.7,1.2,2.7,3.5v4.7H281.8z"/>
		<path class="st3" d="M290.6,121.2c0,2.7-1.5,4-3.1,4c-0.8,0-1.5-0.4-2-0.9v0.7H284v-10.1l1.5-0.8v3.8c0.6-0.5,1.2-0.9,2.1-0.9
			C289.3,116.9,290.6,118.2,290.6,121.2z M289.1,121.2c0-2-0.6-2.8-1.8-2.8c-0.7,0-1.4,0.5-1.8,1v3.3c0.3,0.5,1.1,1,1.8,1
			C288.5,123.7,289.1,122.9,289.1,121.2z"/>
		<path class="st3" d="M297.2,117.3l-0.4,1.5c-0.3-0.2-0.7-0.3-1.2-0.3c-1,0-1.5,0.7-1.5,2v4.5h-1.5v-7.9h1.5v0.8
			c0.4-0.5,1-0.9,1.8-0.9C296.5,116.9,296.9,117,297.2,117.3z"/>
		<path class="st3" d="M304.8,120.9c0,0.3,0,0.5,0,0.7h-5.2c0.2,1.5,1,2.2,2,2.2c0.7,0,1.2-0.2,1.7-0.6l0.9,1c-0.7,0.7-1.5,1-2.7,1
			c-1.8,0-3.4-1.5-3.4-4.1c0-2.7,1.4-4.1,3.5-4.1C303.8,116.9,304.8,118.7,304.8,120.9z M303.3,120.3c-0.1-1.1-0.6-2-1.9-2
			c-1,0-1.7,0.7-1.8,2H303.3z"/>
		<path class="st3" d="M312.1,122.8c0,1.7-1.4,2.3-3,2.3c-1.1,0-2.2-0.4-3-1l0.7-1.2c0.7,0.5,1.6,0.8,2.3,0.8c1,0,1.4-0.3,1.4-0.9
			s-0.7-0.9-1.8-1.3c-1.7-0.7-2.3-1.2-2.3-2.5c0-1.4,1.1-2.1,2.7-2.1c1,0,2,0.4,2.7,0.9l-0.7,1.2c-0.6-0.5-1.3-0.7-2-0.7
			s-1.1,0.3-1.1,0.7c0,0.4,0.3,0.7,1.5,1.1C311.2,120.8,312.1,121.3,312.1,122.8z"/>
	</g>
</g>
</svg>
